<svg width="41" height="40" viewBox="0 0 41 40" fill="none" xmlns="http://www.w3.org/2000/svg">
<g clip-path="url(#clip0_2_5773)">
<path d="M36.7292 6.66602H4.27081C1.91675 6.66602 0 8.53602 0 10.8327V29.1661C0 31.4627 1.91675 33.3327 4.27081 33.3327H36.7291C39.0832 33.3327 40.9999 31.4627 40.9999 29.1661V10.8327C41 8.53602 39.0832 6.66602 36.7292 6.66602ZM39.2917 29.166C39.2917 30.5444 38.142 31.666 36.7292 31.666H4.27081C2.85799 31.666 1.70831 30.5444 1.70831 29.166V10.8327C1.70831 9.45437 2.85799 8.33273 4.27081 8.33273H36.7291C38.1419 8.33273 39.2916 9.45437 39.2916 10.8327V29.166H39.2917Z" fill="#A58A57"/>
<path d="M40.1458 11.666H0.854193C0.382693 11.666 0 12.0394 0 12.4994V17.4994C0 17.9594 0.382693 18.3327 0.854193 18.3327H40.1459C40.6174 18.3327 41.0001 17.9594 41.0001 17.4994V12.4994C41 12.0394 40.6173 11.666 40.1458 11.666ZM39.2917 16.666H1.70831V13.3327H39.2916V16.666H39.2917Z" fill="#A58A57"/>
<path d="M16.2292 23.334H5.97919C5.50769 23.334 5.125 23.7073 5.125 24.1673C5.125 24.6273 5.50769 25.0006 5.97919 25.0006H16.2292C16.7007 25.0006 17.0834 24.6273 17.0834 24.1673C17.0834 23.7073 16.7007 23.334 16.2292 23.334Z" fill="#A58A57"/>
<path d="M16.2292 26.666H5.97919C5.50769 26.666 5.125 27.0394 5.125 27.4994C5.125 27.9594 5.50769 28.3327 5.97919 28.3327H16.2292C16.7007 28.3327 17.0834 27.9594 17.0834 27.4994C17.0833 27.0394 16.7007 26.666 16.2292 26.666Z" fill="#A58A57"/>
<path d="M33.3118 21.666H31.6035C30.1907 21.666 29.041 22.7877 29.041 24.166V25.8327C29.041 27.211 30.1907 28.3327 31.6035 28.3327H33.3118C34.7246 28.3327 35.8743 27.211 35.8743 25.8327V24.166C35.8743 22.7877 34.7246 21.666 33.3118 21.666ZM34.166 25.8327C34.166 26.2927 33.7833 26.6661 33.3118 26.6661H31.6035C31.132 26.6661 30.7493 26.2927 30.7493 25.8327V24.1661C30.7493 23.7061 31.132 23.3327 31.6035 23.3327H33.3118C33.7833 23.3327 34.166 23.7061 34.166 24.1661V25.8327Z" fill="#A58A57"/>
</g>
<defs>
<clipPath id="clip0_2_5773">
<rect width="41" height="40" fill="white"/>
</clipPath>
</defs>
</svg>
