<svg width="40" height="40" viewBox="0 0 40 40" fill="none" xmlns="http://www.w3.org/2000/svg">
<g clip-path="url(#clip0_2_5769)">
<path d="M19.9964 16.2591C20.7703 16.2604 21.3975 16.8876 21.3988 17.6615C21.3988 18.1253 21.7748 18.5013 22.2386 18.5013C22.7025 18.5013 23.0784 18.1253 23.0784 17.6615C23.0768 16.2837 22.1615 15.0738 20.8362 14.6972V14.1933C20.8362 13.7295 20.46 13.3535 19.9964 13.3535C19.5326 13.3535 19.1566 13.7295 19.1566 14.1933V14.6972C17.6765 15.1161 16.732 16.5625 16.9436 18.086C17.1552 19.6097 18.4582 20.7438 19.9964 20.7438C20.7709 20.7438 21.3988 21.3717 21.3988 22.1462C21.3988 22.9208 20.7709 23.5486 19.9964 23.5486C19.2216 23.5486 18.5937 22.9208 18.5937 22.1462C18.5937 21.6824 18.2177 21.3064 17.7539 21.3064C17.2903 21.3064 16.9141 21.6824 16.9141 22.1462C16.916 23.524 17.831 24.7339 19.1566 25.1108V25.7909C19.1566 26.2547 19.5326 26.6307 19.9964 26.6307C20.46 26.6307 20.8362 26.2547 20.8362 25.7909V25.1108C22.3161 24.6916 23.2605 23.2452 23.0489 21.7217C22.8373 20.1983 21.5346 19.0639 19.9964 19.0642C19.2216 19.0642 18.5937 18.4363 18.5937 17.6615C18.5937 16.8869 19.2216 16.2591 19.9964 16.2591Z" fill="#777777"/>
<path d="M35.7925 7.66797H4.19903C1.88038 7.66895 0.000984153 9.54835 0 11.867V28.1091C0.000984153 30.4277 1.88038 32.3071 4.19903 32.3081H35.801C38.1197 32.3071 39.9991 30.4277 40.0001 28.1091V11.867C39.9922 9.54802 38.1118 7.67125 35.7925 7.66797ZM38.3119 28.1091C38.308 29.4987 37.1824 30.6242 35.7925 30.6285H4.19903C2.80942 30.6242 1.68355 29.4987 1.67961 28.1091V11.867C1.68355 10.4774 2.80942 9.35185 4.19903 9.34758H35.801C37.1906 9.35185 38.3162 10.4774 38.3204 11.867L38.3119 28.1091Z" fill="#777777"/>
<path d="M33.055 11.3116C32.8962 11.1414 32.6745 11.0443 32.4419 11.043H7.60033C7.36905 11.0426 7.14795 11.1368 6.9872 11.3031L3.56073 14.9228C3.41278 15.079 3.33142 15.2869 3.33405 15.5021V24.4714C3.33536 24.6859 3.41606 24.8926 3.56073 25.0507L6.9872 28.6704C7.14696 28.8384 7.36873 28.9325 7.60033 28.9309H32.3999C32.6312 28.9309 32.8523 28.8367 33.013 28.6704L36.4392 25.0507C36.5874 24.8945 36.6688 24.6866 36.6662 24.4714V15.5021C36.6649 15.2902 36.5838 15.0862 36.4392 14.931L33.055 11.3116ZM34.9866 24.1354L32.0387 27.2512H7.96151L5.01366 24.1354V15.8381L7.96151 12.7226H32.0807L34.9866 15.8381V24.1354Z" fill="#777777"/>
</g>
<defs>
<clipPath id="clip0_2_5769">
<rect width="40" height="40" fill="white"/>
</clipPath>
</defs>
</svg>
