<svg xmlns="http://www.w3.org/2000/svg" viewBox="0 0 487 291"><defs><style>.cls-1{fill:#a58a57;}.cls-2{fill:#00345e;}</style></defs><title>Coins TSBNK</title><g id="COINS.TSBNK.RU"><polygon class="cls-1" points="379.21 180.18 246.34 47.73 244.05 45.48 241.79 47.76 110.41 180.18 119.42 180.18 244.12 54.55 370.11 180.18 379.21 180.18"/><polygon class="cls-1" points="86.07 180.18 244.58 21.78 403.43 180.18 414.57 180.18 244.5 10.7 75.05 180.18 86.07 180.18"/><polygon class="cls-1" points="28.43 227.04 461.19 226.9 438.38 203.74 51.81 203.74 28.43 227.04"/><path id="TSB" class="cls-2" d="M342.34,103c19.86-6.82,31.15-16.74,31.15-34.45,0-24.9-21.8-30.16-49.45-30.16-3.51,0-12.83.58-18.1.58-3.12,0-15-.38-19.87-.58,1.27,9.94,1.54,39.35,1.57,61.12a44.41,44.41,0,0,0-22-17.22L243.3,73.56c-14.79-5.74-27.71-13.3-27.76-33.29,0-9.29,3.1-16.86,8.9-22.13,5.43-4.93,12.89-7.58,21.69-7.59,13.87,0,24.63,6.42,31.74,18.69l1.77,2.92s4.95-13.82,6.95-18.85l.37-.94-.81-.61C275.52,4,263.9.36,249,.37,236.21.37,223.3,4,213.53,11.63a42.06,42.06,0,0,0-15.68,27.24c-9.59.51-22.1,1-35.09,1-17.61,0-41.42-1-51.1-1.55.2,2.31.58,5.41.58,7,0,1.34-.38,4.24-.58,6.38,6.78-1,16.84-1.57,37.94-1.57h3.69c.56,10.64.76,39.64.76,54.71,0,24.36-.38,53.72-1.55,75,3.1-.19,8.52-.58,10.84-.58,1.54,0,6.59.39,9.68.58-1.16-21.27-1.55-50.63-1.55-75,0-15.07.19-44.07.77-54.71h3.69c10.85,0,17,.16,21.38.44,1.06,19,11.7,33.24,30.53,40.72L249.22,100c17.63,7.17,27,19,27,33.52-.09,22.37-14,36.37-36.1,36.47-12.23,0-23-4.86-32.87-15a71.43,71.43,0,0,1-9-12.13l-4.12,22.22.61.56c13.61,12.55,27.13,14.5,39.34,14.5h.24c17.35,0,32.4-5.85,43.12-15.81a52.45,52.45,0,0,0,9.61-12c-.24,9.87-.58,19.28-1,27.49,2.75-.19,9.16-.58,11.69-.58,5.85,0,17.53.58,24.92.58,31,0,55.28-12.84,55.28-41.45C378,121.63,370.19,108.79,342.34,103ZM305.16,49.63c4.1-.19,11.88-.39,16.36-.39,17.71,0,32.12,6.62,32.12,23.15,0,17.92-16.54,26.87-38.15,26.87-4.68,0-8.19-.2-10.33-.4Zm16.54,119.3c-5.05,0-12.25-.2-16.54-.4v-59h5.45c38,0,47.51,11.09,47.51,28.61C358.12,160.56,341.57,168.93,321.7,168.93Z"/><path id="COINS.TSBNK.RU-2" data-name="COINS.TSBNK.RU" class="cls-2" d="M32.89,257.74h-.84c-3.86-3.49-7.31-4.49-10.5-4.49-10.39,0-14.62,8.83-14.62,17.45,0,8.3,4.49,16.87,14.67,16.87A16.74,16.74,0,0,0,33,283.08l.42.57-.52,3.29A23.52,23.52,0,0,1,20.72,290c-11.54,0-19.43-7.31-19.43-19.27,0-12.22,8.25-19.95,20.58-19.95a27,27,0,0,1,12.32,2.56Zm50.23,12.12c0,11.49-8.67,20.16-20.89,20.16C50.69,290,42,282.81,42,270.7c0-11.86,8.78-19.9,20.58-19.9S83.12,258,83.12,269.86Zm-35.46.84c0,9,4.85,16.87,14.78,16.87,9,0,15-6.69,15-17.55,0-10.13-5.12-16.77-14.78-16.77C53.4,253.25,47.66,259.78,47.66,270.7Zm49.7-19.12c.47,0,1.73-.1,2.56-.16-.36,2.88-.42,11.81-.42,17.71,0,6.58.11,14.52.42,20.27-.83-.06-2.19-.16-2.61-.16-.63,0-2.09.1-2.92.16.31-5.75.41-13.69.41-20.27,0-5.9,0-14.83-.41-17.71C95.33,251.48,96.68,251.58,97.36,251.58Zm18,0,27.22,28.73V269.13c0-5.9-.06-14.83-.42-17.71a18.36,18.36,0,0,0,1.88.16c.31,0,1.36-.1,1.83-.16-.37,2.88-.42,11.81-.42,17.71,0,6.58.1,15.09.42,20.84h-1.47c-1.77-2.09-5.22-6-7.52-8.41L117.15,261v8.15c0,6.58.11,14.52.42,20.27a10.29,10.29,0,0,0-1.83-.16,10.85,10.85,0,0,0-1.88.16c.31-5.75.42-13.69.42-20.27,0-5.9,0-14.68-.42-17.55Zm60.31,5.9a7.48,7.48,0,0,0-6.94-4.23c-3.66,0-6.53,2.2-6.53,6.32s2.4,5.75,6,7.11l4.86,1.88a9.4,9.4,0,0,1,6.37,9.19c0,7.1-5.64,12.27-13.21,12.27a11.71,11.71,0,0,1-8.88-3.34,20.9,20.9,0,0,0,.89-4l.68-.11c2.5,3.35,5.32,5,8.56,5,4.6,0,7.73-3,7.73-7.79,0-3.7-2.82-5.95-5.8-7.15l-4.64-1.88c-4.44-1.78-6.74-5.17-6.74-9.66,0-6.79,5.33-10.29,11.38-10.29a13.12,13.12,0,0,1,8.42,2.66c-.48,1.15-1.1,2.87-1.42,3.92Zm21.57,29.41A3.18,3.18,0,0,1,194,290a3.19,3.19,0,0,1,0-6.37A3.26,3.26,0,0,1,197.2,286.89Zm25.74-17.76c0,6.58.11,14.52.42,20.27-.84-.06-2.19-.16-2.61-.16-.63,0-2.09.1-2.93.16.32-5.75.42-13.69.42-20.27,0-4.07-.05-11.91-.21-14.78h-1a77.22,77.22,0,0,0-10.24.42c.06-.58.16-1.36.16-1.73s-.1-1.25-.16-1.88c2.61.16,9,.42,13.79.42s11.18-.26,13.79-.42c0,.63-.16,1.46-.16,1.88s.11,1.15.16,1.73a77.11,77.11,0,0,0-10.24-.42h-1C223,257.22,222.94,265.06,222.94,269.13Zm37.55-11.65a7.51,7.51,0,0,0-7-4.23c-3.66,0-6.53,2.2-6.53,6.32s2.4,5.75,6,7.11l4.86,1.88a9.4,9.4,0,0,1,6.37,9.19c0,7.1-5.64,12.27-13.21,12.27a11.71,11.71,0,0,1-8.88-3.34,20.9,20.9,0,0,0,.89-4l.68-.11c2.5,3.35,5.32,5,8.56,5,4.6,0,7.73-3,7.73-7.79,0-3.7-2.82-5.95-5.8-7.15l-4.64-1.88c-4.44-1.78-6.74-5.17-6.74-9.66,0-6.79,5.33-10.29,11.38-10.29a13.08,13.08,0,0,1,8.41,2.66c-.47,1.15-1.09,2.87-1.41,3.92Zm20.93-5.9c1.41,0,3.92-.16,4.86-.16,7.41,0,13.26,1.41,13.26,8.1,0,4.75-3,7.42-8.35,9.25,7.47,1.56,9.56,5,9.56,9.5,0,7.68-6.53,11.13-14.84,11.13-2,0-5.12-.16-6.68-.16-.68,0-2.41.1-3.14.16.31-5.75.42-13.69.42-20.27,0-5.9-.05-14.83-.42-17.71C277.4,251.48,280.58,251.58,281.42,251.58Zm-.21,16.09c.57.05,1.52.1,2.77.1,5.8,0,10.24-2.4,10.24-7.21,0-4.43-3.87-6.21-8.62-6.21-1.2,0-3.29.05-4.39.1Zm0,18.7c1.15.05,3.08.1,4.44.1,5.33,0,9.77-2.25,9.77-8.25,0-4.7-2.56-7.68-12.75-7.68h-1.46Zm34.09-34.79,27.22,28.73V269.13c0-5.9,0-14.83-.42-17.71a18.36,18.36,0,0,0,1.88.16c.31,0,1.36-.1,1.83-.16-.37,2.88-.42,11.81-.42,17.71,0,6.58.1,15.09.42,20.84h-1.46c-1.78-2.09-5.23-6-7.52-8.41L317.13,261v8.15c0,6.58.11,14.52.42,20.27a10.2,10.2,0,0,0-1.83-.16,10.93,10.93,0,0,0-1.88.16c.32-5.75.42-13.69.42-20.27,0-5.9-.05-14.68-.42-17.55Zm49.56,17.24c4.44-3.35,13.37-13.06,17.18-17.4.89.06,2,.16,2.77.16s2-.1,2.72-.16c-5,4.55-12.07,11.23-17.76,17,4.49,5.38,13.47,15.67,18.28,20.95-1.1-.11-2.25-.16-3.4-.16-.88,0-2.61.05-3.5.16a248.27,248.27,0,0,0-16.29-19.17c0,5.48.1,13.42.42,19.17-.84-.06-2.2-.16-2.62-.16-.62,0-2.09.1-2.92.16.31-5.75.42-13.69.42-20.27,0-5.9-.06-14.83-.42-17.71.94.06,2.3.16,3,.16.47,0,1.72-.1,2.56-.16C364.91,254.3,364.86,263.23,364.86,268.82Zm38.42,18.07a3.19,3.19,0,1,1-3.18-3.29A3.25,3.25,0,0,1,403.28,286.89Zm19.27-35.31c1.41,0,5.23-.16,7.21-.16,6.69,0,11,2.93,11,8.62,0,5.12-3.76,9.56-11.23,10.34,9.72,12.43,11.75,14.89,15.41,19-1.2-.11-2.56-.16-3.66-.16a34.38,34.38,0,0,0-3.44.16C434.1,284,427.83,276,423.6,271h-1.88c0,6.27,0,12.69.42,18.44a21.74,21.74,0,0,0-2.67-.16,23.76,23.76,0,0,0-2.87.16c.31-5.75.42-13.69.42-20.27,0-5.9,0-14.83-.42-17.71C418.11,251.53,421.3,251.58,422.55,251.58Zm-.83,16.61h1.72c5,0,11.65-1.25,11.65-7.57,0-3.92-3-6.27-9.09-6.27a39.65,39.65,0,0,0-4.28.16Zm35.61-16.61c.47,0,1.72-.1,2.56-.16-.32,3.71-.37,8.88-.37,13.32v9.87c0,8.26,4.13,12.49,11.54,12.49,10.4,0,12-6.9,12-18,0-5.9-.05-14.83-.42-17.71a14,14,0,0,0,1.93.16,14.7,14.7,0,0,0,1.88-.16c-.36,2.88-.41,11.81-.41,17.71,0,15.62-4.76,20.89-16.3,20.89-9.4,0-14.94-4.75-14.94-14.41V264.8c0-4.08-.1-10.76-.47-13.38C455.29,251.48,456.65,251.58,457.33,251.58Z"/></g></svg>