<svg width="154" height="154" viewBox="0 0 154 154" fill="none" xmlns="http://www.w3.org/2000/svg">
<path d="M142.204 77.7652C143.624 77.8585 144.695 78.2639 145.415 78.9814C146.136 79.6989 146.458 80.6281 146.383 81.769C146.324 82.673 146.021 83.426 145.473 84.0278C144.936 84.6302 144.195 84.9653 143.25 85.033L143.216 84.0741C143.935 83.9916 144.498 83.7367 144.904 83.3094C145.31 82.8821 145.534 82.3509 145.576 81.7159C145.629 80.9087 145.349 80.2364 144.736 79.6989C144.133 79.1621 143.267 78.8565 142.137 78.7823C141.007 78.7081 140.103 78.8973 139.424 79.35C138.756 79.8141 138.395 80.4606 138.34 81.2893C138.298 81.9351 138.456 82.4967 138.813 82.9742C139.182 83.4524 139.733 83.7805 140.467 83.9584L140.307 84.9207C139.358 84.7179 138.641 84.2816 138.155 83.612C137.68 82.9538 137.472 82.1619 137.533 81.2363C137.609 80.0739 138.052 79.1788 138.861 78.5509C139.669 77.9338 140.783 77.6719 142.204 77.7652Z" fill="#00345E"/>
<path d="M143.562 97.1301L135.294 95.2567L135.512 94.2942L143.07 96.0067L136.213 91.2015L136.509 89.8918L144.768 88.5116L137.21 86.7991L137.428 85.8366L145.696 87.71L145.317 89.3826L136.896 90.6761L143.941 95.4575L143.562 97.1301Z" fill="#00345E"/>
<path d="M138.643 98.3755C139.49 98.7263 140.158 99.1721 140.646 99.7129C141.144 100.258 141.448 100.862 141.558 101.527C141.664 102.201 141.571 102.892 141.278 103.6C140.985 104.307 140.564 104.857 140.017 105.249C139.465 105.651 138.82 105.868 138.083 105.901C137.351 105.948 136.562 105.797 135.715 105.446C134.868 105.095 134.197 104.642 133.703 104.087C133.215 103.547 132.918 102.939 132.812 102.265C132.702 101.6 132.793 100.914 133.086 100.207C133.379 99.4993 133.802 98.9446 134.354 98.5427C134.901 98.1507 135.539 97.9361 136.266 97.8989C137.004 97.8658 137.796 98.0247 138.643 98.3755ZM138.253 99.3172C137.237 98.8962 136.328 98.794 135.526 99.0106C134.724 99.2272 134.16 99.7291 133.834 100.516C133.508 101.304 133.552 102.057 133.966 102.777C134.375 103.508 135.088 104.083 136.105 104.504C137.121 104.925 138.033 105.022 138.839 104.796C139.64 104.579 140.204 104.077 140.53 103.29C140.856 102.503 140.813 101.749 140.399 101.029C139.985 100.309 139.27 99.7382 138.253 99.3172Z" fill="#00345E"/>
<path d="M138.701 108.867L135.296 114.729L134.582 114.315L136.021 111.838L129.403 107.995L129.915 107.113L136.533 110.957L137.987 108.453L138.701 108.867Z" fill="#00345E"/>
<path d="M133.96 116.701L133.396 117.43L131.86 116.243C132.229 116.842 132.401 117.466 132.377 118.115C132.354 118.779 132.125 119.392 131.69 119.956C131.267 120.502 130.757 120.871 130.159 121.063C129.563 121.27 128.911 121.284 128.204 121.105C127.496 120.927 126.78 120.557 126.055 119.996C125.329 119.436 124.791 118.836 124.44 118.196C124.089 117.557 123.935 116.919 123.976 116.283C124.02 115.663 124.253 115.079 124.675 114.533C125.084 114.004 125.583 113.64 126.173 113.442C126.756 113.252 127.373 113.238 128.025 113.401L124.069 110.343L124.693 109.537L133.96 116.701ZM130.013 114.876C129.151 114.21 128.307 113.864 127.481 113.839C126.657 113.83 125.988 114.157 125.473 114.823C124.965 115.48 124.82 116.206 125.037 117.001C125.263 117.803 125.806 118.537 126.668 119.203C127.53 119.869 128.373 120.207 129.197 120.217C130.03 120.233 130.7 119.913 131.208 119.256C131.722 118.59 131.867 117.857 131.641 117.055C131.418 116.269 130.875 115.543 130.013 114.876Z" fill="#00345E"/>
<path d="M125.072 121.044C125.744 121.73 126.194 122.421 126.423 123.118C126.659 123.822 126.69 124.494 126.515 125.132C126.34 125.771 125.987 126.351 125.455 126.871C124.622 127.686 123.711 128.042 122.72 127.94C121.73 127.838 120.71 127.251 119.662 126.179L119.549 126.063L124.151 121.56C123.366 120.819 122.581 120.418 121.796 120.356C121.011 120.294 120.314 120.561 119.705 121.157C119.274 121.579 119.009 122.049 118.912 122.567C118.815 123.084 118.882 123.585 119.113 124.068L118.374 124.678C118.015 124.002 117.901 123.307 118.031 122.592C118.16 121.891 118.541 121.232 119.173 120.613C120.029 119.776 120.976 119.378 122.012 119.42C123.042 119.469 124.062 120.011 125.072 121.044ZM120.775 125.859C121.477 126.561 122.205 126.95 122.959 127.027C123.706 127.112 124.36 126.879 124.923 126.328C125.478 125.785 125.737 125.132 125.7 124.368C125.67 123.613 125.316 122.85 124.638 122.08L120.775 125.859Z" fill="#00345E"/>
<path d="M121.4 130.361L115.992 134.448L115.494 133.79L117.779 132.063L113.165 125.958L113.978 125.343L118.592 131.449L120.903 129.702L121.4 130.361Z" fill="#00345E"/>
<path d="M109.209 134.535C108.31 135.048 107.535 135.236 106.885 135.098C106.231 134.975 105.703 134.562 105.302 133.859C104.901 133.157 104.811 132.488 105.032 131.852C105.243 131.222 105.799 130.651 106.698 130.137L109.269 128.669L109.719 128.412L113.923 135.774L113.038 136.28L111.345 133.315L109.209 134.535ZM107.175 130.777C105.939 131.483 105.61 132.342 106.187 133.354C106.765 134.365 107.672 134.518 108.908 133.812L110.96 132.641L109.227 129.606L107.175 130.777Z" fill="#00345E"/>
<path d="M93.3937 135.687L97.9313 138.3L99.2224 137.875L98.0047 134.171L98.9731 133.853L101.62 141.907L100.652 142.225L99.475 138.644L98.1532 139.078L96.1949 143.69L94.996 144.084L97.34 138.988L92.1641 136.091L93.3937 135.687Z" fill="#00345E"/>
<path d="M92.296 140.399C92.4574 141.302 92.4421 142.104 92.25 142.807C92.0599 143.52 91.7148 144.102 91.2147 144.554C90.704 145.006 90.0718 145.3 89.3179 145.435C88.5641 145.57 87.8745 145.513 87.2491 145.263C86.613 145.015 86.0822 144.59 85.6565 143.986C85.2222 143.396 84.9243 142.649 84.7628 141.747C84.6014 140.844 84.6211 140.035 84.8218 139.32C85.0139 138.617 85.3653 138.039 85.8759 137.586C86.376 137.135 87.003 136.842 87.7568 136.708C88.5106 136.573 89.2056 136.629 89.8416 136.877C90.467 137.127 90.9916 137.548 91.4153 138.141C91.841 138.744 92.1345 139.497 92.296 140.399ZM91.2926 140.579C91.0989 139.496 90.6946 138.675 90.0797 138.116C89.4649 137.558 88.738 137.354 87.8992 137.504C87.0605 137.654 86.4495 138.097 86.0663 138.834C85.6725 139.573 85.5725 140.484 85.7662 141.567C85.9599 142.65 86.3695 143.47 86.995 144.026C87.6099 144.585 88.3367 144.789 89.1755 144.639C90.0143 144.489 90.6253 144.045 91.0084 143.308C91.3916 142.571 91.4863 141.662 91.2926 140.579Z" fill="#00345E"/>
<path d="M75.997 146.39L75.7353 137.917L76.7541 137.885L76.9903 145.534L80.6127 145.422L80.6888 143.17C80.7275 141.626 80.7845 140.502 80.8599 139.798C80.9248 139.105 81.0756 138.572 81.3122 138.198C81.5489 137.823 81.9313 137.628 82.4596 137.612C82.5889 137.608 82.7833 137.613 83.0427 137.626L83.0682 138.451C82.9597 138.433 82.8246 138.426 82.6629 138.431C82.3611 138.44 82.141 138.652 82.0027 139.067C81.854 139.492 81.7586 140.072 81.7166 140.807C81.6637 141.543 81.6188 142.71 81.5819 144.308L81.5438 146.219L75.997 146.39Z" fill="#00345E"/>
<path d="M65.5967 145.468L66.5748 137.047L67.5873 137.164L66.7043 144.766L70.3043 145.184L70.7084 142.967C70.972 141.445 71.1925 140.341 71.3698 139.656C71.5352 138.98 71.7622 138.474 72.051 138.139C72.3397 137.803 72.7466 137.666 73.2715 137.727C73.4001 137.742 73.5917 137.775 73.8464 137.826L73.7512 138.646C73.6465 138.612 73.5138 138.586 73.3531 138.567C73.0531 138.532 72.8045 138.71 72.6072 139.099C72.398 139.498 72.2189 140.059 72.07 140.78C71.9104 141.5 71.6956 142.647 71.4257 144.223L71.109 146.108L65.5967 145.468Z" fill="#00345E"/>
<path d="M63.903 140.862C63.659 141.791 63.2968 142.532 62.8166 143.086C62.3337 143.651 61.7732 144.022 61.1353 144.2C60.4975 144.378 59.8186 144.372 59.0988 144.183C57.9722 143.887 57.1985 143.288 56.7777 142.385C56.357 141.483 56.3371 140.307 56.7183 138.857L56.7594 138.7L62.9871 140.337C63.2196 139.283 63.1609 138.403 62.811 137.698C62.4611 136.993 61.8741 136.532 61.05 136.315C60.4658 136.162 59.9267 136.176 59.4327 136.358C58.9386 136.541 58.5437 136.855 58.2479 137.302L57.3453 136.981C57.7404 136.326 58.2783 135.871 58.959 135.615C59.6265 135.367 60.3879 135.355 61.2433 135.58C62.4012 135.884 63.2285 136.492 63.725 137.403C64.2111 138.311 64.2705 139.465 63.903 140.862ZM57.5642 139.648C57.3224 140.61 57.3622 141.435 57.6835 142.122C57.9944 142.806 58.5306 143.248 59.2922 143.448C60.0432 143.645 60.7366 143.532 61.3722 143.108C62.0051 142.694 62.4779 141.999 62.7905 141.022L57.5642 139.648Z" fill="#00345E"/>
<path d="M51.1557 132.163L52.8924 137.102L54.148 137.622L55.64 134.02L56.5817 134.41L53.3376 142.243L52.3959 141.853L53.8384 138.37L52.5529 137.837L48.0611 140.057L46.8951 139.574L51.9953 137.239L49.9599 131.667L51.1557 132.163Z" fill="#00345E"/>
<path d="M44.7661 138.472L43.8885 137.953L47.7808 131.364L43.7132 128.962L39.8209 135.551L38.9433 135.032L42.8356 128.443L42.0277 127.966L43.6159 125.277L44.4378 125.763L43.2693 127.741L49.0781 131.172L44.7661 138.472Z" fill="#00345E"/>
<path d="M30.7365 128.725L36.067 122.133L36.847 122.764L31.9743 128.79L40.3193 125.571L41.5145 126.538L36.184 133.13L35.4166 132.51L40.2893 126.483L31.9443 129.702L30.7365 128.725Z" fill="#00345E"/>
<path d="M23.5416 121.453C22.7807 120.586 22.4716 119.644 22.6145 118.63C22.7494 117.622 23.3479 116.652 24.4102 115.721C25.4725 114.789 26.5161 114.318 27.5409 114.309C28.5576 114.307 29.4464 114.74 30.2074 115.607C30.9328 116.434 31.2484 117.334 31.1541 118.306C31.0528 119.27 30.5292 120.203 29.5836 121.104L30.8638 122.564L33.7952 119.993L34.4673 120.759L28.0935 126.349L27.4214 125.583L30.2312 123.118L28.9404 121.647C27.95 122.415 26.9824 122.776 26.0377 122.729C25.0849 122.69 24.2528 122.264 23.5416 121.453ZM29.5992 116.141C29.0587 115.524 28.3856 115.24 27.58 115.286C26.7744 115.333 25.9419 115.733 25.0823 116.487C24.2227 117.241 23.7173 118.014 23.566 118.807C23.4147 119.599 23.6093 120.304 24.1498 120.92C24.6903 121.536 25.3634 121.821 26.169 121.775C26.9746 121.728 27.8072 121.328 28.6667 120.574C29.5263 119.82 30.0317 119.047 30.183 118.254C30.3343 117.462 30.1397 116.757 29.5992 116.141Z" fill="#00345E"/>
<path d="M20 103.228C20.2513 103.868 20.3662 104.517 20.3448 105.174C20.3312 105.828 20.1978 106.453 19.9446 107.048C19.6806 107.638 19.315 108.165 18.8477 108.628C18.3774 109.082 17.822 109.436 17.1816 109.687C16.5335 109.941 15.8862 110.06 15.2398 110.043C14.5825 110.022 13.9603 109.883 13.3731 109.627C12.775 109.366 12.2485 109 11.7936 108.53C11.3308 108.063 10.9738 107.509 10.7225 106.869C10.4681 106.22 10.3532 105.572 10.3777 104.922C10.3913 104.268 10.5301 103.646 10.7942 103.055C11.0473 102.46 11.4091 101.935 11.8794 101.48C12.3389 101.021 12.8927 100.664 13.5409 100.409C14.1812 100.158 14.83 100.043 15.4873 100.065C16.1415 100.078 16.7677 100.215 17.3657 100.476C17.9529 100.733 18.474 101.096 18.9289 101.566C19.3886 102.026 19.7456 102.58 20 103.228Z" fill="#00345E"/>
<path d="M12.9085 88.8451C11.4962 89.0257 10.3679 88.8329 9.52342 88.2666C8.67899 87.7004 8.18428 86.8503 8.03928 85.7162C7.92439 84.8174 8.07801 84.0203 8.50016 83.3248C8.91161 82.6306 9.57453 82.1599 10.4889 81.9125L10.7063 82.847C10.0166 83.0657 9.51319 83.4236 9.19618 83.9209C8.87916 84.4181 8.76101 84.9823 8.84171 85.6136C8.9443 86.416 9.34802 87.0223 10.0529 87.4323C10.747 87.8438 11.6558 87.9777 12.7792 87.8341C13.9026 87.6905 14.7538 87.3315 15.3328 86.7573C15.8998 86.1737 16.1306 85.4701 16.0253 84.6462C15.9432 84.0043 15.6809 83.4833 15.2382 83.0832C14.7849 82.6844 14.181 82.468 13.4263 82.434L13.3995 81.4588C14.3695 81.4762 15.157 81.7669 15.7619 82.3312C16.3548 82.886 16.7101 83.6235 16.8277 84.5437C16.9754 85.6991 16.7126 86.6625 16.0391 87.4336C15.3643 88.1941 14.3207 88.6646 12.9085 88.8451Z" fill="#00345E"/>
<path d="M7.90379 69.728L16.3765 70.0224L16.3423 71.0088L8.59714 70.7396L16.2321 74.178L16.1855 75.52L8.33025 78.4201L16.0754 78.6892L16.0411 79.6755L7.56836 79.3811L7.62791 77.6672L15.6593 74.8218L7.84423 71.442L7.90379 69.728Z" fill="#00345E"/>
<path d="M12.5021 67.5121C11.6043 67.3265 10.8648 67.0141 10.2838 66.5746C9.69215 66.133 9.2799 65.5962 9.04699 64.9644C8.81627 64.3219 8.77839 63.6257 8.93335 62.8758C9.0883 62.1258 9.39791 61.5069 9.86216 61.0191C10.3286 60.5207 10.9209 60.186 11.6391 60.015C12.3489 59.8313 13.1527 59.8321 14.0506 60.0176C14.9484 60.2032 15.6921 60.522 16.2815 60.9742C16.8626 61.4137 17.2684 61.9546 17.4992 62.597C17.7321 63.2289 17.771 63.9198 17.6161 64.6698C17.4611 65.4198 17.1504 66.0439 16.684 66.5423C16.2198 67.0301 15.6338 67.3606 14.9262 67.5338C14.208 67.7048 13.4 67.6976 12.5021 67.5121ZM12.7084 66.5139C13.7858 66.7365 14.6979 66.6661 15.4449 66.3028C16.1918 65.9395 16.6514 65.3406 16.8239 64.5061C16.9963 63.6716 16.8116 62.9396 16.2699 62.31C15.7303 61.6698 14.9218 61.2385 13.8444 61.0158C12.7669 60.7932 11.8537 60.8689 11.1046 61.2428C10.3577 61.6061 9.89798 62.205 9.72557 63.0395C9.55315 63.8739 9.73782 64.606 10.2796 65.2356C10.8213 65.8651 11.6309 66.2912 12.7084 66.5139Z" fill="#00345E"/>
<path d="M10.4241 57.3647L12.6619 50.9656L13.4408 51.238L12.4955 53.9412L19.7192 56.4674L19.3827 57.4296L12.159 54.9033L11.203 57.6371L10.4241 57.3647Z" fill="#00345E"/>
<path d="M13.5897 48.7401L14.008 47.9182L15.7383 48.7989C15.2645 48.2793 14.9792 47.6984 14.8825 47.0562C14.7811 46.3994 14.8918 45.7538 15.2147 45.1194C15.5279 44.5042 15.9605 44.0466 16.5125 43.7467C17.0599 43.4322 17.6976 43.2969 18.4257 43.3407C19.1537 43.3845 19.9263 43.6144 20.7434 44.0302C21.5605 44.4461 22.2009 44.9355 22.6648 45.4984C23.1287 46.0613 23.3993 46.6589 23.4768 47.2914C23.5496 47.9094 23.4294 48.526 23.1163 49.1412C22.8129 49.7371 22.39 50.1876 21.8476 50.4924C21.31 50.7876 20.7061 50.9159 20.0359 50.8774L24.4913 53.1451L24.0289 54.0535L13.5897 48.7401ZM17.8078 49.7978C18.7786 50.2919 19.6722 50.4744 20.4883 50.3452C21.2997 50.2015 21.8963 49.7547 22.2779 49.0049C22.6546 48.2648 22.6623 47.5244 22.301 46.7837C21.9301 46.0382 21.2592 45.4184 20.2884 44.9242C19.3175 44.43 18.4264 44.2548 17.6149 44.3985C16.7939 44.5374 16.195 44.9769 15.8183 45.717C15.4366 46.4668 15.4313 47.2145 15.8022 47.96C16.1684 48.691 16.8369 49.3036 17.8078 49.7978Z" fill="#00345E"/>
<path d="M21.4701 42.8442C20.6836 42.2938 20.1136 41.6974 19.76 41.055C19.3977 40.4065 19.2434 39.7522 19.2973 39.0921C19.3511 38.432 19.5914 37.7971 20.0181 37.1874C20.686 36.233 21.5161 35.7146 22.5084 35.6324C23.5007 35.5501 24.6111 35.9388 25.8394 36.7984L25.972 36.8912L22.2798 42.1668C23.1883 42.7499 24.0339 42.9995 24.8168 42.9154C25.5997 42.8314 26.2354 42.4403 26.724 41.7422C27.0703 41.2473 27.2435 40.7366 27.2434 40.2099C27.2433 39.6833 27.0851 39.2039 26.7687 38.7719L27.3823 38.0362C27.8596 38.6335 28.1004 39.2957 28.1049 40.023C28.1068 40.7352 27.8541 41.4536 27.347 42.1782C26.6605 43.1591 25.8039 43.7247 24.7771 43.8751C23.7566 44.0165 22.6542 43.6729 21.4701 42.8442ZM24.8043 37.3181C23.9851 36.7579 23.1978 36.5097 22.4423 36.5734C21.693 36.6283 21.0926 36.9783 20.6411 37.6234C20.1958 38.2596 20.062 38.9493 20.2397 39.6924C20.4086 40.4294 20.8973 41.1137 21.7059 41.7454L24.8043 37.3181Z" fill="#00345E"/>
<path d="M23.4072 32.908L27.969 27.8934L28.5793 28.4487L26.6523 30.567L32.3131 35.7167L31.6272 36.4707L25.9664 31.321L24.0175 33.4632L23.4072 32.908Z" fill="#00345E"/>
<path d="M34.3713 26.7349C35.1572 26.0607 35.8824 25.7299 36.5469 25.7424C37.2126 25.7398 37.8088 26.0455 38.3356 26.6594C38.8623 27.2734 39.0773 27.9133 38.9804 28.579C38.8918 29.2377 38.4546 29.9041 37.6687 30.5784L35.4216 32.5062L35.0286 32.8433L29.5085 26.4089L30.2821 25.7452L32.5049 28.3362L34.3713 26.7349ZM37.0788 30.0399C38.1594 29.1128 38.3205 28.2072 37.562 27.3231C36.8035 26.439 35.8839 26.4605 34.8033 27.3875L33.0105 28.9256L35.286 31.5779L37.0788 30.0399Z" fill="#00345E"/>
<path d="M49.82 22.4811L44.8704 20.7732L43.6828 21.4341L45.5787 24.8412L44.6881 25.3369L40.5658 17.9287L41.4564 17.4331L43.2894 20.7272L44.5053 20.0506L45.5564 15.1517L46.6591 14.5381L45.3208 19.9856L50.9511 21.8518L49.82 22.4811Z" fill="#00345E"/>
<path d="M50.0679 17.6005C49.7394 16.7446 49.6033 15.9534 49.6595 15.2271C49.7119 14.4907 49.9412 13.8539 50.3474 13.3168C50.7636 12.7757 51.3292 12.368 52.0442 12.0936C52.7591 11.8192 53.4472 11.7458 54.1085 11.8732C54.7798 11.9968 55.3813 12.3147 55.9129 12.827C56.4508 13.3253 56.884 14.0024 57.2125 14.8584C57.541 15.7143 57.674 16.5124 57.6115 17.2527C57.5553 17.979 57.319 18.6127 56.9028 19.1537C56.4966 19.6909 55.9361 20.0966 55.2211 20.3711C54.5061 20.6455 53.813 20.7209 53.1417 20.5973C52.4804 20.4698 51.8859 20.155 51.3581 19.6528C50.8265 19.1405 50.3964 18.4564 50.0679 17.6005ZM51.0195 17.2353C51.4137 18.2624 51.9654 18.9923 52.6744 19.4249C53.3834 19.8575 54.1357 19.9211 54.9312 19.6158C55.7267 19.3105 56.2433 18.7599 56.4808 17.964C56.7284 17.1642 56.6551 16.2507 56.2609 15.2236C55.8666 14.1965 55.31 13.4685 54.5909 13.0398C53.8818 12.6072 53.1296 12.5435 52.334 12.8489C51.5385 13.1542 51.022 13.7048 50.7845 14.5007C50.5469 15.2966 50.6253 16.2081 51.0195 17.2353Z" fill="#00345E"/>
<path d="M64.9063 8.65007L66.7482 16.9254L65.7533 17.1469L64.0906 9.67695L60.5531 10.4643L60.8996 12.6911C61.1504 14.2155 61.3047 15.3303 61.3622 16.0358C61.428 16.7283 61.3796 17.2805 61.2171 17.6924C61.0547 18.1043 60.7155 18.3676 60.1996 18.4825C60.0732 18.5106 59.8814 18.5422 59.624 18.5774L59.4447 17.772C59.5547 17.7696 59.6887 17.7508 59.8466 17.7157C60.1414 17.6501 60.318 17.4008 60.3763 16.9679C60.4428 16.5222 60.428 15.9343 60.3318 15.2043C60.2462 14.472 60.0721 13.3173 59.8095 11.7404L59.4894 9.85575L64.9063 8.65007Z" fill="#00345E"/>
<path d="M74.8818 7.63179L75.5026 16.0869L74.4861 16.1615L73.9257 8.52935L70.3113 8.79473L70.3307 11.0483C70.3576 12.5928 70.3483 13.7183 70.3029 14.4246C70.2674 15.1194 70.1393 15.6587 69.9188 16.0426C69.6982 16.4265 69.3244 16.6378 68.7973 16.6765C68.6682 16.686 68.4738 16.6895 68.214 16.6869L68.1536 15.864C68.2628 15.8776 68.398 15.8785 68.5594 15.8667C68.8606 15.8445 69.0715 15.6236 69.192 15.2037C69.3226 14.7724 69.3933 14.1886 69.4041 13.4524C69.4257 12.7153 69.4211 11.5476 69.3903 9.94928L69.3473 8.03816L74.8818 7.63179Z" fill="#00345E"/>
<path d="M77.7947 11.7967C77.8613 10.839 78.0788 10.0432 78.4473 9.40932C78.8165 8.76465 79.2978 8.29536 79.8913 8.00146C80.4848 7.70757 81.1528 7.58644 81.8952 7.63808C83.0573 7.7189 83.9292 8.16337 84.5109 8.97149C85.0926 9.77961 85.3315 10.9315 85.2274 12.4271L85.2162 12.5885L78.7924 12.1418C78.7606 13.2208 78.9824 14.0741 79.4577 14.7019C79.933 15.3296 80.5957 15.673 81.4458 15.7321C82.0483 15.774 82.5753 15.6593 83.0267 15.388C83.478 15.1166 83.8074 14.7341 84.0147 14.2403L84.9614 14.3873C84.6953 15.104 84.2517 15.6516 83.6307 16.0301C83.0212 16.3985 82.2753 16.5521 81.393 16.4907C80.1987 16.4076 79.2726 15.9648 78.6148 15.1622C77.9678 14.3604 77.6944 13.2385 77.7947 11.7967ZM84.2488 11.8077C84.3069 10.817 84.114 10.0143 83.6702 9.39957C83.2372 8.7856 82.6279 8.45129 81.8424 8.39666C81.0677 8.34278 80.4077 8.58339 79.8623 9.1185C79.3176 9.64285 78.9829 10.4143 78.858 11.4327L84.2488 11.8077Z" fill="#00345E"/>
<path d="M92.0856 17.9554L89.4522 13.4298L88.1213 13.1548L87.3323 16.9733L86.3341 16.767L88.0496 8.46457L89.0478 8.67082L88.285 12.3626L89.6476 12.6441L93.6426 9.62021L94.8785 9.87556L90.3077 13.1274L93.3532 18.2173L92.0856 17.9554Z" fill="#00345E"/>
<path d="M97.0779 10.5162L98.0375 10.8599L95.457 18.0644L99.9046 19.6575L102.485 12.453L103.445 12.7967L100.864 20.0012L101.748 20.3176L100.695 23.2573L99.796 22.9354L100.571 20.7725L94.2192 18.4975L97.0779 10.5162Z" fill="#00345E"/>
<path d="M112.474 17.3063L108.489 24.7893L107.603 24.3179L111.246 17.4775L103.662 22.219L102.305 21.4966L106.29 14.0136L107.161 14.4774L103.519 21.3178L111.103 16.5763L112.474 17.3063Z" fill="#00345E"/>
<path d="M121.254 23.3234C122.162 24.0359 122.639 24.9041 122.686 25.9278C122.739 26.9431 122.33 28.0066 121.457 29.1181C120.585 30.2297 119.646 30.8845 118.641 31.0826C117.642 31.2722 116.688 31.0108 115.78 30.2983C114.915 29.6191 114.439 28.793 114.352 27.8202C114.274 26.854 114.617 25.8408 115.38 24.7808L113.853 23.5822L111.446 26.6497L110.644 26.0204L115.878 19.351L116.679 19.9803L114.372 22.9204L115.912 24.129C116.744 23.1913 117.629 22.6583 118.566 22.5299C119.509 22.393 120.406 22.6575 121.254 23.3234ZM116.28 29.6619C116.925 30.168 117.639 30.3238 118.422 30.1295C119.205 29.9352 119.95 29.3883 120.656 28.4889C121.361 27.5894 121.716 26.7363 121.718 25.9293C121.721 25.1224 121.4 24.4659 120.755 23.9598C120.11 23.4537 119.396 23.2979 118.613 23.4922C117.829 23.6865 117.085 24.2334 116.379 25.1328C115.673 26.0323 115.319 26.8854 115.316 27.6924C115.314 28.4993 115.635 29.1558 116.28 29.6619Z" fill="#00345E"/>
<path d="M132.411 48.4296C132.044 47.8479 131.809 47.2322 131.706 46.5826C131.597 45.9375 131.61 45.2989 131.747 44.6669C131.896 44.0376 132.156 43.4518 132.528 42.9095C132.904 42.3742 133.383 41.9231 133.965 41.5559C134.554 41.1843 135.167 40.9459 135.805 40.8409C136.455 40.7384 137.092 40.7579 137.717 40.8992C138.354 41.0431 138.939 41.3033 139.475 41.6798C140.017 42.0518 140.472 42.5286 140.839 43.1104C141.211 43.6992 141.445 44.3149 141.543 44.9574C141.653 45.6025 141.633 46.2398 141.485 46.8691C141.348 47.5011 141.091 48.0847 140.715 48.6199C140.35 49.1577 139.873 49.6124 139.284 49.9841C138.703 50.3512 138.087 50.586 137.437 50.6885C136.792 50.798 136.151 50.7808 135.515 50.6369C134.89 50.4956 134.31 50.2367 133.775 49.8602C133.237 49.4953 132.782 49.0184 132.411 48.4296Z" fill="#00345E"/>
<path d="M90.4797 76.4738C90.7446 76.2089 90.7446 75.7794 90.4797 75.5144L86.1624 71.1971C85.8975 70.9322 85.4679 70.9322 85.203 71.1971C84.9381 71.4621 84.9381 71.8916 85.203 72.1565L89.0406 75.9941L85.203 79.8318C84.9381 80.0967 84.9381 80.5262 85.203 80.7912C85.4679 81.0561 85.8975 81.0561 86.1624 80.7912L90.4797 76.4738ZM63 76.6725H90V75.3157H63V76.6725Z" fill="#00345E"/>
</svg>
