<svg width="20" height="20" viewBox="0 0 20 20" fill="none" xmlns="http://www.w3.org/2000/svg">
<path d="M14.5862 0H5.41381C2.42858 0 0 2.42858 0 5.41381V14.5863C0 17.5714 2.42858 20 5.41381 20H14.5863C17.5714 20 20 17.5714 20 14.5863V5.41381C20 2.42858 17.5714 0 14.5862 0V0ZM18.8275 14.5863C18.8275 16.9249 16.9249 18.8275 14.5862 18.8275H5.41381C3.0751 18.8275 1.17248 16.9249 1.17248 14.5863V5.41381C1.17248 3.0751 3.0751 1.17248 5.41381 1.17248H14.5863C16.9249 1.17248 18.8275 3.0751 18.8275 5.41381V14.5863Z" fill="#CCCCCC"/>
<path d="M9.99984 4.53125C6.9844 4.53125 4.53125 6.9844 4.53125 9.99984C4.53125 13.0153 6.9844 15.4684 9.99984 15.4684C13.0153 15.4684 15.4684 13.0153 15.4684 9.99984C15.4684 6.9844 13.0153 4.53125 9.99984 4.53125V4.53125ZM9.99984 14.2959C7.63107 14.2959 5.70373 12.3688 5.70373 9.99984C5.70373 7.63107 7.63107 5.70373 9.99984 5.70373C12.3688 5.70373 14.2959 7.63107 14.2959 9.99984C14.2959 12.3688 12.3688 14.2959 9.99984 14.2959V14.2959Z" fill="#CCCCCC"/>
<path d="M15.6003 2.58887C14.7092 2.58887 13.9844 3.31381 13.9844 4.20477C13.9844 5.09588 14.7092 5.82082 15.6003 5.82082C16.4914 5.82082 17.2163 5.09588 17.2163 4.20477C17.2163 3.31366 16.4914 2.58887 15.6003 2.58887ZM15.6003 4.64819C15.3558 4.64819 15.1569 4.44922 15.1569 4.20477C15.1569 3.96017 15.3558 3.76135 15.6003 3.76135C15.8449 3.76135 16.0438 3.96017 16.0438 4.20477C16.0438 4.44922 15.8449 4.64819 15.6003 4.64819Z" fill="#CCCCCC"/>
</svg>
