<svg width="44" height="28" viewBox="0 0 44 28" fill="none" xmlns="http://www.w3.org/2000/svg">
<rect x="0.5" y="0.5" width="42.8777" height="27" rx="2.5" stroke="white"/>
<g clip-path="url(#clip0_44_22105)">
<path d="M14.4908 23.9561V22.6288C14.4908 22.121 14.1914 21.7886 13.6775 21.7886C13.4205 21.7886 13.141 21.8762 12.9489 22.1649C12.7992 21.9226 12.5846 21.7886 12.2628 21.7886C12.0482 21.7886 11.8336 21.8556 11.664 22.0979V21.8324H11.2148V23.9561H11.664V22.7834C11.664 22.4071 11.8561 22.2293 12.1555 22.2293C12.4549 22.2293 12.6046 22.4277 12.6046 22.7834V23.9561H13.0537V22.7834C13.0537 22.4071 13.2683 22.2293 13.5452 22.2293C13.8446 22.2293 13.9943 22.4277 13.9943 22.7834V23.9561H14.4908ZM21.1526 21.8324H20.4241V21.1906H19.975V21.8324H19.5683V22.2525H19.975V23.2267C19.975 23.7138 20.1671 23.9999 20.6811 23.9999C20.8732 23.9999 21.0878 23.9329 21.2375 23.8453L21.1077 23.4458C20.978 23.5334 20.8283 23.5566 20.721 23.5566C20.5064 23.5566 20.4216 23.4226 20.4216 23.2035V22.2525H21.1501V21.8324H21.1526ZM24.9651 21.786C24.7081 21.786 24.5359 21.92 24.4286 22.0953V21.8298H23.9795V23.9535H24.4286V22.7576C24.4286 22.4045 24.5783 22.2035 24.8578 22.2035C24.9426 22.2035 25.0499 22.2267 25.1372 22.2473L25.267 21.804C25.1771 21.786 25.0499 21.786 24.9651 21.786ZM19.204 22.0076C18.9894 21.853 18.69 21.786 18.3682 21.786C17.8542 21.786 17.5124 22.0515 17.5124 22.4716C17.5124 22.8247 17.7693 23.0257 18.2185 23.0901L18.433 23.1133C18.6676 23.1571 18.7973 23.2241 18.7973 23.335C18.7973 23.4896 18.6251 23.6004 18.3257 23.6004C18.0263 23.6004 17.7893 23.4896 17.6396 23.3788L17.425 23.7319C17.6596 23.9097 17.9814 23.9973 18.3033 23.9973C18.9021 23.9973 19.2464 23.7087 19.2464 23.3118C19.2464 22.9355 18.967 22.737 18.5403 22.67L18.3257 22.6468C18.1336 22.6236 17.9839 22.5798 17.9839 22.4484C17.9839 22.2937 18.1336 22.2061 18.3706 22.2061C18.6276 22.2061 18.8846 22.3169 19.0144 22.3839L19.204 22.0076ZM31.1528 21.786C30.8958 21.786 30.7236 21.92 30.6164 22.0953V21.8298H30.1672V23.9535H30.6164V22.7576C30.6164 22.4045 30.7661 22.2035 31.0455 22.2035C31.1303 22.2035 31.2376 22.2267 31.3249 22.2473L31.4547 21.8092C31.3674 21.786 31.2401 21.786 31.1528 21.786ZM25.4142 22.8942C25.4142 23.536 25.8433 23.9999 26.507 23.9999C26.8064 23.9999 27.021 23.9329 27.2356 23.7576L27.021 23.3813C26.8488 23.5154 26.6792 23.5798 26.4846 23.5798C26.1203 23.5798 25.8633 23.3143 25.8633 22.8942C25.8633 22.4948 26.1203 22.2293 26.4846 22.2087C26.6767 22.2087 26.8488 22.2757 27.021 22.4071L27.2356 22.0308C27.021 21.853 26.8064 21.7886 26.507 21.7886C25.8433 21.786 25.4142 22.2525 25.4142 22.8942ZM29.5684 22.8942V21.8324H29.1193V22.0979C28.9696 21.8994 28.755 21.7886 28.4756 21.7886C27.8967 21.7886 27.4476 22.2525 27.4476 22.8942C27.4476 23.536 27.8967 23.9999 28.4756 23.9999C28.775 23.9999 28.9896 23.8891 29.1193 23.6906V23.9561H29.5684V22.8942ZM27.9192 22.8942C27.9192 22.518 28.1537 22.2087 28.5405 22.2087C28.9048 22.2087 29.1617 22.4973 29.1617 22.8942C29.1617 23.2705 28.9048 23.5798 28.5405 23.5798C28.1562 23.5566 27.9192 23.2679 27.9192 22.8942ZM22.5449 21.786C21.9461 21.786 21.5169 22.2293 21.5169 22.8917C21.5169 23.5566 21.9461 23.9973 22.5673 23.9973C22.8667 23.9973 23.1661 23.9097 23.4032 23.7087L23.1886 23.3762C23.0164 23.5102 22.8019 23.5978 22.5898 23.5978C22.3103 23.5978 22.0334 23.4638 21.9685 23.0901H23.488C23.488 23.0231 23.488 22.9793 23.488 22.9123C23.508 22.2293 23.1212 21.786 22.5449 21.786ZM22.5449 22.1855C22.8243 22.1855 23.0164 22.3633 23.0588 22.6932H21.9885C22.0309 22.4071 22.223 22.1855 22.5449 22.1855ZM33.7027 22.8942V20.9922H33.2536V22.0979C33.1039 21.8994 32.8893 21.7886 32.6099 21.7886C32.031 21.7886 31.5819 22.2525 31.5819 22.8942C31.5819 23.536 32.031 23.9999 32.6099 23.9999C32.9093 23.9999 33.1239 23.8891 33.2536 23.6906V23.9561H33.7027V22.8942ZM32.0535 22.8942C32.0535 22.518 32.288 22.2087 32.6748 22.2087C33.039 22.2087 33.296 22.4973 33.296 22.8942C33.296 23.2705 33.039 23.5798 32.6748 23.5798C32.288 23.5566 32.0535 23.2679 32.0535 22.8942ZM17.0183 22.8942V21.8324H16.5692V22.0979C16.4195 21.8994 16.2049 21.7886 15.9255 21.7886C15.3466 21.7886 14.8975 22.2525 14.8975 22.8942C14.8975 23.536 15.3466 23.9999 15.9255 23.9999C16.2249 23.9999 16.4395 23.8891 16.5692 23.6906V23.9561H17.0183V22.8942ZM15.3491 22.8942C15.3491 22.518 15.5837 22.2087 15.9704 22.2087C16.3347 22.2087 16.5917 22.4973 16.5917 22.8942C16.5917 23.2705 16.3347 23.5798 15.9704 23.5798C15.5837 23.5566 15.3491 23.2679 15.3491 22.8942Z" fill="white"/>
<path d="M25.7994 5.70312H19.0527V18.2238H25.7994V5.70312Z" fill="white" fill-opacity="0.6"/>
<path d="M19.5037 11.9639C19.5037 9.4201 20.6615 7.16237 22.4379 5.70361C21.1305 4.64175 19.4813 4 17.6824 4C13.4208 4 9.97266 7.56186 9.97266 11.9639C9.97266 16.366 13.4208 19.9278 17.6824 19.9278C19.4813 19.9278 21.1305 19.2861 22.4379 18.2242C20.659 16.7861 19.5037 14.5077 19.5037 11.9639Z" fill="white"/>
<path d="M34.9028 11.9639C34.9028 16.366 31.4546 19.9278 27.1931 19.9278C25.3941 19.9278 23.7449 19.2861 22.4375 18.2242C24.2364 16.7629 25.3717 14.5077 25.3717 11.9639C25.3717 9.4201 24.214 7.16237 22.4375 5.70361C23.7424 4.64175 25.3916 4 27.1906 4C31.4546 4 34.9028 7.58505 34.9028 11.9639Z" fill="white"/>
</g>
<defs>
<clipPath id="clip0_44_22105">
<rect width="24.9305" height="20" fill="white" transform="translate(9.97266 4)"/>
</clipPath>
</defs>
</svg>
