<svg width="44" height="28" viewBox="0 0 44 28" fill="none" xmlns="http://www.w3.org/2000/svg">
<rect x="0.5" y="0.5" width="42.8778" height="27" rx="2.5" stroke="white"/>
<path fill-rule="evenodd" clip-rule="evenodd" d="M10.3704 10.0834C10.637 10.0818 11.4292 10.0117 11.7648 11.1251C11.9908 11.8751 12.3509 13.1036 12.8449 14.8107H13.0462C13.576 13.011 13.94 11.7824 14.1381 11.1251C14.4772 10.0001 15.3248 10.0834 15.6639 10.0834L18.2798 10.0834V18.0834H15.6136V13.3689H15.4348L13.9485 18.0834H11.9426L10.4563 13.3654H10.2775V18.0834H7.61133V10.0834L10.3704 10.0834ZM22.1084 10.0834V14.8015H22.3211L24.129 10.9218C24.4799 10.1498 25.2279 10.0834 25.2279 10.0834H27.808V18.0834H25.0861V13.3654H24.8734L23.1009 17.245C22.75 18.0136 21.9666 18.0834 21.9666 18.0834H19.3865V10.0834H22.1084ZM37.216 13.8851C36.8363 14.9428 35.644 15.7003 34.3239 15.7003H31.4695V18.0834H28.8812V13.8851H37.216Z" fill="white"/>
<path fill-rule="evenodd" clip-rule="evenodd" d="M34.4474 10.082H28.7441C28.8799 11.8631 30.44 13.3878 32.0551 13.3878H37.3945C37.7026 11.9075 36.6419 10.082 34.4474 10.082Z" fill="white"/>
</svg>
