<svg width="20" height="20" viewBox="0 0 20 20" fill="none" xmlns="http://www.w3.org/2000/svg">
<path d="M10.0009 2C7.78094 2 5.96094 3.8 5.96094 6.04C5.96094 8.26 7.76094 10.08 10.0009 10.08C12.2209 10.08 14.041 8.28 14.041 6.04C14.041 3.8 12.2209 2 10.0009 2ZM10.0009 8.04C8.88094 8.04 7.98094 7.14 7.98094 6.02C7.98094 4.9 8.88094 4 10.0009 4C11.1209 4 12.0209 4.9 12.0209 6.02C12.0209 7.14 11.1209 8.04 10.0009 8.04Z" fill="#CCCCCC"/>
<path d="M15.9398 10.7009C15.5798 10.0409 14.7398 9.80091 14.0798 10.1809C11.3398 11.7209 8.65981 11.7209 5.91981 10.1809C5.25981 9.80091 4.41981 10.0409 4.05981 10.7009C3.67981 11.3609 3.91981 12.2009 4.57981 12.5609C5.51981 13.1009 6.47981 13.4809 7.43981 13.7409L5.49981 15.6809C4.95981 16.2209 4.95981 17.0809 5.49981 17.6009C6.03981 18.1409 6.89981 18.1409 7.41981 17.6009L9.99981 15.0209L12.5798 17.6009C13.1198 18.1409 13.9798 18.1409 14.4998 17.6009C15.0398 17.0609 15.0398 16.2009 14.4998 15.6809L12.5598 13.7409C13.5198 13.4809 14.4798 13.1009 15.4198 12.5609C16.0798 12.1809 16.3198 11.3609 15.9398 10.7009Z" fill="#CCCCCC"/>
</svg>
