<svg width="14" height="14" viewBox="0 0 14 14" fill="none" xmlns="http://www.w3.org/2000/svg">
<g clip-path="url(#clip0_2_15794)">
<path d="M3.37589 7.38418L9.8513 13.8417C10.0635 14.0531 10.407 14.0528 10.6188 13.8406C10.8304 13.6284 10.8298 13.2847 10.6177 13.0731L4.52769 6.99998L10.6179 0.926844C10.83 0.715205 10.8306 0.371741 10.619 0.159554C10.5128 0.0531875 10.3737 3.5412e-06 10.2346 3.52904e-06C10.0959 3.51691e-06 9.95732 0.0528318 9.85133 0.15846L3.37589 6.6158C3.27371 6.71746 3.21637 6.85582 3.21637 6.99998C3.21637 7.14413 3.27387 7.28233 3.37589 7.38418Z" fill="#C4C4C4" fill-opacity="0.7"/>
</g>
<defs>
<clipPath id="clip0_2_15794">
<rect x="14" y="14" width="14" height="14" rx="7" transform="rotate(-180 14 14)" fill="white"/>
</clipPath>
</defs>
</svg>
