<svg width="20" height="20" viewBox="0 0 20 20" fill="none" xmlns="http://www.w3.org/2000/svg">
<path d="M10 0C4.47301 0 0 4.4725 0 10C0 15.5269 4.4725 20 10 20C15.527 20 20 15.5275 20 10C20 4.47309 15.5275 0 10 0ZM10 18.6046C5.25539 18.6046 1.39535 14.7446 1.39535 10C1.39535 5.25535 5.25539 1.39535 10 1.39535C14.7446 1.39535 18.6046 5.25535 18.6046 10C18.6046 14.7446 14.7446 18.6046 10 18.6046Z" fill="#A58A57"/>
<path d="M9.27226 14.041C9.18101 14.147 9.02318 14.1551 8.92154 14.0589L5.07923 10.4223C4.97759 10.3261 4.97317 10.1643 5.0693 10.0626L6.29348 8.76908C6.38967 8.66744 6.55152 8.66302 6.65316 8.75915L8.75206 10.7456C8.8537 10.8418 9.01153 10.8337 9.10278 10.7276L13.2033 5.96316C13.2946 5.8571 13.4561 5.84499 13.5621 5.93631L14.9118 7.09804C15.0179 7.1893 15.03 7.3508 14.9387 7.45686L9.27226 14.041Z" fill="#A58A57"/>
</svg>
