<svg width="44" height="28" viewBox="0 0 44 28" fill="none" xmlns="http://www.w3.org/2000/svg">
<rect x="0.5" y="0.5" width="42.8777" height="27" rx="2.5" stroke="white"/>
<g clip-path="url(#clip0_44_22097)">
<path d="M17.9633 8.29297L16.1895 18.7314H19.0264L20.8017 8.29297H17.9633Z" fill="white"/>
<path d="M13.8095 8.30298L11.0309 15.4217L10.7347 14.3468C10.1867 13.0517 8.63104 11.1917 6.80469 10.0195L9.34538 18.7245L12.3472 18.7194L16.815 8.30078L13.8095 8.30298Z" fill="white"/>
<path d="M9.65923 9.05116C9.49433 8.41532 9.0164 8.22581 8.42318 8.20312H4.02476L3.98828 8.41093C7.41114 9.2436 9.67602 11.2499 10.6158 13.6623L9.65923 9.05116Z" fill="white"/>
<path d="M26.5505 10.2937C27.4787 10.2791 28.1514 10.4825 28.6739 10.6932L28.93 10.814L29.3138 8.55157C28.7519 8.34011 27.8712 8.11328 26.7724 8.11328C23.969 8.11328 21.9931 9.52911 21.9777 11.5581C21.9595 13.0574 23.3853 13.8944 24.4622 14.3942C25.5677 14.9064 25.9383 15.232 25.9332 15.6893C25.9245 16.388 25.0518 16.7085 24.2368 16.7085C23.1007 16.7085 22.4973 16.5512 21.5655 16.1619L21.1999 15.9951L20.8008 18.3314C21.4648 18.6234 22.6899 18.8743 23.9617 18.8875C26.9438 18.8875 28.8818 17.4885 28.9022 15.3205C28.9147 14.1344 28.158 13.2293 26.5184 12.4866C25.5261 12.0023 24.919 11.6803 24.9248 11.1915C24.9248 10.7576 25.44 10.2937 26.5505 10.2937Z" fill="white"/>
<path d="M36.5957 8.30469H34.4038C33.723 8.30469 33.2166 8.49054 32.9174 9.17102L28.7051 18.7372H31.6843C31.6843 18.7372 32.1703 17.4509 32.2804 17.1692C32.6066 17.1692 35.5012 17.1736 35.9134 17.1736C35.9981 17.538 36.2593 18.7372 36.2593 18.7372H38.8912L36.5957 8.30469ZM33.0969 15.0326C33.3304 14.4334 34.2272 12.1154 34.2272 12.1154C34.2119 12.1439 34.4585 11.5117 34.6051 11.1188L34.7963 12.0188C34.7963 12.0188 35.3399 14.5109 35.4537 15.0326H33.0969Z" fill="white"/>
</g>
<defs>
<clipPath id="clip0_44_22097">
<rect width="35" height="11" fill="white" transform="translate(4 8)"/>
</clipPath>
</defs>
</svg>
