<svg width="30" height="30" viewBox="0 0 30 30" fill="none" xmlns="http://www.w3.org/2000/svg">
<path d="M24.5413 25.4781C24.79 25.4781 25.0284 25.3794 25.2042 25.2035C25.38 25.0277 25.4788 24.7893 25.4788 24.5406V21.625C26.2382 21.4214 26.9091 20.9729 27.3877 20.3492C27.8662 19.7254 28.1256 18.9612 28.1256 18.175C28.1256 17.3888 27.8662 16.6246 27.3877 16.0008C26.9091 15.3771 26.2382 14.9286 25.4788 14.725V5.45313C25.4788 5.20448 25.38 4.96603 25.2042 4.79021C25.0284 4.6144 24.79 4.51562 24.5413 4.51562C24.2927 4.51562 24.0542 4.6144 23.8784 4.79021C23.7026 4.96603 23.6038 5.20448 23.6038 5.45313V14.7344C22.8445 14.938 22.1735 15.3864 21.695 16.0102C21.2164 16.634 20.957 17.3982 20.957 18.1844C20.957 18.9706 21.2164 19.7348 21.695 20.3585C22.1735 20.9823 22.8445 21.4308 23.6038 21.6344V24.55C23.6063 24.797 23.7061 25.0331 23.8817 25.2069C24.0572 25.3807 24.2943 25.4781 24.5413 25.4781ZM22.8257 18.175C22.8257 17.8357 22.9263 17.504 23.1148 17.2219C23.3033 16.9397 23.5713 16.7198 23.8848 16.59C24.1983 16.4601 24.5432 16.4261 24.876 16.4923C25.2088 16.5585 25.5145 16.7219 25.7544 16.9619C25.9944 17.2018 26.1578 17.5075 26.224 17.8403C26.2902 18.1731 26.2562 18.5181 26.1263 18.8315C25.9965 19.145 25.7766 19.413 25.4945 19.6015C25.2123 19.79 24.8806 19.8906 24.5413 19.8906C24.0863 19.8906 23.6499 19.7099 23.3282 19.3881C23.0064 19.0664 22.8257 18.63 22.8257 18.175Z" fill="#777777"/>
<path d="M15.0008 25.4801C15.2494 25.4801 15.4879 25.3814 15.6637 25.2055C15.8395 25.0297 15.9383 24.7913 15.9383 24.5426V11.5489C16.7785 11.3216 17.5075 10.7969 17.9898 10.0724C18.4721 9.34782 18.6748 8.47275 18.5601 7.60994C18.4455 6.74714 18.0214 5.95534 17.3667 5.38184C16.7119 4.80834 15.8712 4.49219 15.0008 4.49219C14.1304 4.49219 13.2896 4.80834 12.6349 5.38184C11.9802 5.95534 11.5561 6.74714 11.4414 7.60994C11.3268 8.47275 11.5295 9.34782 12.0118 10.0724C12.494 10.7969 13.2231 11.3216 14.0633 11.5489V24.5426C14.0633 24.7913 14.1621 25.0297 14.3379 25.2055C14.5137 25.3814 14.7521 25.4801 15.0008 25.4801ZM13.2852 8.10826C13.2833 7.76855 13.3823 7.43594 13.5697 7.15257C13.7571 6.86921 14.0244 6.64785 14.3377 6.51656C14.651 6.38527 14.9963 6.34996 15.3297 6.41509C15.6631 6.48023 15.9697 6.64288 16.2106 6.88244C16.4514 7.122 16.6158 7.42767 16.6827 7.76072C16.7497 8.09378 16.7163 8.43921 16.5867 8.75325C16.4571 9.06728 16.2372 9.33578 15.9549 9.52471C15.6726 9.71365 15.3405 9.81451 15.0008 9.81451C14.5474 9.81452 14.1124 9.63505 13.791 9.31534C13.4695 8.99562 13.2876 8.56165 13.2852 8.10826Z" fill="#777777"/>
<path d="M4.51788 18.4469V24.5406C4.51788 24.7893 4.61665 25.0277 4.79247 25.2035C4.96828 25.3794 5.20674 25.4781 5.45538 25.4781C5.70402 25.4781 5.94248 25.3794 6.11829 25.2035C6.29411 25.0277 6.39288 24.7893 6.39288 24.5406V18.4469C7.15224 18.2433 7.8232 17.7948 8.30174 17.171C8.78029 16.5473 9.03967 15.7831 9.03967 14.9969C9.03967 14.2107 8.78029 13.4465 8.30174 12.8227C7.8232 12.1989 7.15224 11.7505 6.39288 11.5469V5.45313C6.39288 5.20448 6.29411 4.96603 6.11829 4.79021C5.94248 4.6144 5.70402 4.51562 5.45538 4.51562C5.20674 4.51562 4.96828 4.6144 4.79247 4.79021C4.61665 4.96603 4.51788 5.20448 4.51788 5.45313V11.5469C3.75852 11.7505 3.08756 12.1989 2.60901 12.8227C2.13047 13.4465 1.87109 14.2107 1.87109 14.9969C1.87109 15.7831 2.13047 16.5473 2.60901 17.171C3.08756 17.7948 3.75852 18.2433 4.51788 18.4469ZM5.45538 13.2813C5.79509 13.2794 6.12771 13.3784 6.41107 13.5658C6.69443 13.7532 6.91579 14.0205 7.04708 14.3338C7.17837 14.6471 7.21369 14.9924 7.14855 15.3258C7.08341 15.6592 6.92076 15.9658 6.6812 16.2067C6.44165 16.4475 6.13597 16.6119 5.80292 16.6788C5.46987 16.7458 5.12443 16.7124 4.8104 16.5828C4.49636 16.4532 4.22786 16.2333 4.03893 15.951C3.85 15.6687 3.74913 15.3366 3.74913 14.9969C3.74912 14.5435 3.92859 14.1085 4.24831 13.787C4.56802 13.4656 5.00199 13.2837 5.45538 13.2813Z" fill="#777777"/>
</svg>
