<svg width="18" height="18" viewBox="0 0 18 18" fill="none" xmlns="http://www.w3.org/2000/svg">
<path d="M6.21534 0H2.08153C0.933785 0 0 0.933785 0 2.08153V6.21534C0 7.36309 0.933785 8.29688 2.08153 8.29688H6.21534C7.36309 8.29688 8.29688 7.36309 8.29688 6.21534V2.08153C8.29688 0.933785 7.36309 0 6.21534 0ZM6.89062 6.21534C6.89062 6.58768 6.58768 6.89062 6.21534 6.89062H2.08153C1.70919 6.89062 1.40625 6.58768 1.40625 6.21534V2.08153C1.40625 1.70919 1.70919 1.40625 2.08153 1.40625H6.21534C6.58768 1.40625 6.89062 1.70919 6.89062 2.08153V6.21534Z" fill="#C4C4C4"/>
<path d="M15.8906 0H11.8125C10.6494 0 9.70312 0.946266 9.70312 2.10938V6.1875C9.70312 7.35061 10.6494 8.29688 11.8125 8.29688H15.8906C17.0537 8.29688 18 7.35061 18 6.1875V2.10938C18 0.946266 17.0537 0 15.8906 0ZM16.5938 6.1875C16.5938 6.5752 16.2783 6.89062 15.8906 6.89062H11.8125C11.4248 6.89062 11.1094 6.5752 11.1094 6.1875V2.10938C11.1094 1.72167 11.4248 1.40625 11.8125 1.40625H15.8906C16.2783 1.40625 16.5938 1.72167 16.5938 2.10938V6.1875Z" fill="#C4C4C4"/>
<path d="M6.21534 9.29688H2.08153C0.933785 9.29688 0 10.2307 0 11.3784V15.5122C0 16.66 0.933785 17.5938 2.08153 17.5938H6.21534C7.36309 17.5938 8.29688 16.66 8.29688 15.5122V11.3784C8.29688 10.2307 7.36309 9.29688 6.21534 9.29688ZM6.89062 15.5122C6.89062 15.8846 6.58768 16.1875 6.21534 16.1875H2.08153C1.70919 16.1875 1.40625 15.8846 1.40625 15.5122V11.3784C1.40625 11.0061 1.70919 10.7031 2.08153 10.7031H6.21534C6.58768 10.7031 6.89062 11.0061 6.89062 11.3784V15.5122Z" fill="#C4C4C4"/>
<path d="M15.8906 9.29688H11.8125C10.6494 9.29688 9.70312 10.2431 9.70312 11.4062V15.4844C9.70312 16.6475 10.6494 17.5938 11.8125 17.5938H15.8906C17.0537 17.5938 18 16.6475 18 15.4844V11.4062C18 10.2431 17.0537 9.29688 15.8906 9.29688ZM16.5938 15.4844C16.5938 15.8721 16.2783 16.1875 15.8906 16.1875H11.8125C11.4248 16.1875 11.1094 15.8721 11.1094 15.4844V11.4062C11.1094 11.0185 11.4248 10.7031 11.8125 10.7031H15.8906C16.2783 10.7031 16.5938 11.0185 16.5938 11.4062V15.4844Z" fill="#C4C4C4"/>
</svg>
