<svg width="18" height="18" viewBox="0 0 18 18" fill="none" xmlns="http://www.w3.org/2000/svg">
<g clip-path="url(#clip0_2_5915)">
<path d="M17.1027 15.5366H5.06613C4.57004 15.5366 4.16797 15.1345 4.16797 14.6384C4.16797 14.1423 4.57004 13.7402 5.06613 13.7402H17.1024C17.5984 13.7402 18.0005 14.1423 18.0005 14.6384C18.0005 15.1345 17.5987 15.5366 17.1027 15.5366Z" fill="#C4C4C4"/>
<path d="M17.1027 9.89788H5.06613C4.57004 9.89788 4.16797 9.4958 4.16797 8.99972C4.16797 8.50364 4.57004 8.10156 5.06613 8.10156H17.1024C17.5984 8.10156 18.0005 8.50364 18.0005 8.99972C18.0008 9.4958 17.5987 9.89788 17.1027 9.89788Z" fill="#C4C4C4"/>
<path d="M17.1027 4.26116H5.06613C4.57004 4.26116 4.16797 3.85909 4.16797 3.363C4.16797 2.86692 4.57004 2.46484 5.06613 2.46484H17.1024C17.5984 2.46484 18.0005 2.86692 18.0005 3.363C18.0005 3.85909 17.5987 4.26116 17.1027 4.26116Z" fill="#C4C4C4"/>
<path d="M1.20623 4.63902C1.87241 4.63902 2.41245 4.09897 2.41245 3.43279C2.41245 2.76661 1.87241 2.22656 1.20623 2.22656C0.540046 2.22656 0 2.76661 0 3.43279C0 4.09897 0.540046 4.63902 1.20623 4.63902Z" fill="#C4C4C4"/>
<path d="M1.20623 10.2054C1.87241 10.2054 2.41245 9.66538 2.41245 8.9992C2.41245 8.33301 1.87241 7.79297 1.20623 7.79297C0.540046 7.79297 0 8.33301 0 8.9992C0 9.66538 0.540046 10.2054 1.20623 10.2054Z" fill="#C4C4C4"/>
<path d="M1.20623 15.7757C1.87241 15.7757 2.41245 15.2357 2.41245 14.5695C2.41245 13.9033 1.87241 13.3633 1.20623 13.3633C0.540046 13.3633 0 13.9033 0 14.5695C0 15.2357 0.540046 15.7757 1.20623 15.7757Z" fill="#C4C4C4"/>
</g>
<defs>
<clipPath id="clip0_2_5915">
<rect width="18" height="18" fill="white"/>
</clipPath>
</defs>
</svg>
