<svg width="10" height="10" viewBox="0 0 10 10" fill="none" xmlns="http://www.w3.org/2000/svg">
<path d="M5.00008 7.50511C4.88977 7.50415 4.78415 7.46038 4.7055 7.38303L0.538838 3.21637C0.462939 3.13778 0.420941 3.03253 0.421891 2.92329C0.42284 2.81404 0.46666 2.70953 0.543914 2.63228C0.621167 2.55503 0.725672 2.51121 0.83492 2.51026C0.944169 2.50931 1.04942 2.5513 1.128 2.6272L5.00008 6.49928L8.87216 2.6272C8.91059 2.58741 8.95657 2.55566 9.00741 2.53383C9.05824 2.51199 9.11292 2.5005 9.16824 2.50002C9.22356 2.49953 9.27843 2.51008 9.32964 2.53103C9.38084 2.55198 9.42737 2.58292 9.46649 2.62204C9.50561 2.66116 9.53655 2.70768 9.5575 2.75889C9.57845 2.8101 9.58899 2.86496 9.58851 2.92029C9.58803 2.97561 9.57654 3.03029 9.5547 3.08112C9.53286 3.13196 9.50112 3.17793 9.46132 3.21637L5.29466 7.38303C5.21601 7.46038 5.11039 7.50415 5.00008 7.50511Z" fill="#A58A57"/>
</svg>
