<svg width="20" height="20" viewBox="0 0 20 20" fill="none" xmlns="http://www.w3.org/2000/svg">
<path d="M17.5846 15.9161C17.5259 15.878 17.0834 15.568 16.6403 14.6303C15.8267 12.9084 15.6559 10.4827 15.6559 8.75098C15.6559 8.74344 15.6558 8.73598 15.6555 8.72848C15.6466 6.43984 14.2762 4.46695 12.3151 3.58176V2.22797C12.3151 0.999453 11.3173 0 10.0908 0H9.90648C8.68 0 7.68218 0.999453 7.68218 2.22797V3.58168C5.71453 4.46973 4.34136 6.45269 4.34136 8.75098C4.34136 10.4827 4.17058 12.9083 3.35695 14.6303C2.91394 15.568 2.47148 15.8779 2.41265 15.9161C2.16492 16.0308 2.04277 16.2956 2.09976 16.564C2.1573 16.8351 2.41066 17.022 2.68734 17.022H6.98214C7.00613 18.6681 8.34964 20 9.99867 20C11.6477 20 12.9912 18.6681 13.0152 17.022H17.31C17.5866 17.022 17.84 16.8351 17.8976 16.564C17.9545 16.2956 17.8324 16.0307 17.5846 15.9161ZM8.8541 2.22797C8.8541 1.64668 9.32621 1.17379 9.90652 1.17379H10.0909C10.6712 1.17379 11.1433 1.64668 11.1433 2.22797V3.20129C10.7734 3.12484 10.3906 3.08461 9.99851 3.08461C9.60656 3.08461 9.22382 3.1248 8.85414 3.20117V2.22797H8.8541ZM9.99867 18.8262C8.99582 18.8262 8.17781 18.0209 8.15402 17.022H11.8433C11.8195 18.0208 11.0015 18.8262 9.99867 18.8262ZM12.358 15.8481C12.3579 15.8481 4.02269 15.8481 4.02269 15.8481C4.12406 15.6902 4.22722 15.5113 4.32976 15.3091C5.11507 13.7606 5.51328 11.5541 5.51328 8.75098C5.51328 6.27375 7.52535 4.2584 9.99847 4.2584C12.4716 4.2584 14.4837 6.27375 14.4837 8.75293C14.4837 8.76016 14.4838 8.76734 14.4841 8.77453C14.4863 11.5664 14.8844 13.765 15.6676 15.3091C15.7701 15.5113 15.8733 15.6902 15.9746 15.8481H12.358Z" fill="white"/>
</svg>
