<svg width="21" height="18" viewBox="0 0 21 18" fill="none" xmlns="http://www.w3.org/2000/svg">
<path d="M10.5 17.8873C10.201 17.8873 9.91278 17.7842 9.68816 17.5968C8.83981 16.8903 8.0219 16.2264 7.30029 15.6408L7.2966 15.6377C5.18094 13.9207 3.35398 12.4378 2.08282 10.9771C0.661856 9.34409 0 7.79578 0 6.10434C0 4.46097 0.591681 2.94485 1.66594 1.83508C2.75301 0.712189 4.24463 0.09375 5.86651 0.09375C7.07871 0.09375 8.18885 0.45874 9.16601 1.1785C9.65916 1.54181 10.1062 1.98645 10.5 2.5051C10.894 1.98645 11.3408 1.54181 11.8341 1.1785C12.8113 0.45874 13.9214 0.09375 15.1336 0.09375C16.7553 0.09375 18.2471 0.712189 19.3342 1.83508C20.4084 2.94485 21 4.46097 21 6.10434C21 7.79578 20.3383 9.34409 18.9173 10.9769C17.6461 12.4378 15.8193 13.9205 13.704 15.6374C12.9811 16.224 12.1619 16.8889 11.3116 17.5971C11.0872 17.7842 10.7988 17.8873 10.5 17.8873ZM5.86651 1.26532C4.5923 1.26532 3.42175 1.74963 2.5702 2.62915C1.70599 3.52194 1.22999 4.75607 1.22999 6.10434C1.22999 7.52692 1.78514 8.79919 3.02986 10.2296C4.23293 11.6122 6.0224 13.0645 8.09432 14.7462L8.09817 14.7492C8.82251 15.3371 9.64362 16.0036 10.4982 16.7153C11.3579 16.0023 12.1803 15.3347 12.9061 14.7458C14.9779 13.0642 16.7672 11.6122 17.9703 10.2296C19.2148 8.79919 19.77 7.52692 19.77 6.10434C19.77 4.75607 19.294 3.52194 18.4298 2.62915C17.5784 1.74963 16.4077 1.26532 15.1336 1.26532C14.2002 1.26532 13.3432 1.54791 12.5865 2.10516C11.9121 2.60199 11.4424 3.23004 11.167 3.66949C11.0253 3.89548 10.776 4.03036 10.5 4.03036C10.2239 4.03036 9.97463 3.89548 9.833 3.66949C9.55774 3.23004 9.08799 2.60199 8.41347 2.10516C7.65677 1.54791 6.79977 1.26532 5.86651 1.26532Z" fill="#A58A57"/><defs><linearGradient id="paint0_linear_142_23140" x1="1.5" y1="1.14062" x2="22.5" y2="22.1406" gradientUnits="userSpaceOnUse"><stop stop-color="#A58A57"/><stop offset="1" stop-color="#A58A57" stop-opacity="0"/></linearGradient></defs>
</svg>