<svg width="154" height="154" viewBox="0 0 154 154" fill="none" xmlns="http://www.w3.org/2000/svg">
<path d="M142.216 77.5835C139.342 77.3948 137.691 78.8267 137.534 81.2161C137.407 83.1534 138.392 84.6936 140.376 85.0995L140.578 83.7508C139.222 83.4185 138.571 82.4678 138.648 81.2892C138.748 79.7717 140.025 78.8502 142.123 78.9881C144.222 79.1259 145.367 80.2064 145.27 81.6917C145.197 82.8056 144.489 83.6996 143.118 83.8366L143.158 85.2012C145.162 85.0571 146.262 83.6215 146.384 81.7649C146.538 79.4078 145.089 77.7723 142.216 77.5835Z" fill="#A58A57"/>
<path d="M144.029 95.0671L137.116 90.7302L145.224 89.7969L145.749 87.4774L137.481 85.6039L137.177 86.9452L144.483 88.6005L136.558 89.6749L136.165 91.4106L142.849 95.8116L135.543 94.1562L135.239 95.4974L143.507 97.3709L144.029 95.0671Z" fill="#A58A57"/>
<path d="M138.713 98.2073C136.157 97.1486 134.01 97.9758 133.082 100.218C132.153 102.46 133.092 104.548 135.648 105.606C138.204 106.665 140.345 105.853 141.273 103.611C142.202 101.369 141.269 99.266 138.713 98.2073ZM138.174 99.5077C140.013 100.269 140.855 101.704 140.242 103.183C139.635 104.648 138.025 105.067 136.187 104.306C134.348 103.544 133.506 102.11 134.113 100.645C134.726 99.1653 136.336 98.7462 138.174 99.5077Z" fill="#A58A57"/>
<path d="M137.785 108.125L136.347 110.601L130.023 106.928L129.308 108.159L135.631 111.832L134.193 114.308L135.2 114.893L138.792 108.71L137.785 108.125Z" fill="#A58A57"/>
<path d="M124.815 109.379L123.944 110.506L127.784 113.474C126.516 113.21 125.371 113.633 124.599 114.632C123.332 116.27 123.734 118.422 125.949 120.133C128.163 121.845 130.347 121.693 131.613 120.054C132.445 118.979 132.529 117.653 131.847 116.472L133.28 117.58L134.082 116.543L124.815 109.379ZM129.907 115.013C131.481 116.23 131.937 117.81 130.978 119.051C130.028 120.28 128.384 120.237 126.81 119.02C125.235 117.803 124.779 116.223 125.729 114.994C126.689 113.753 128.333 113.796 129.907 115.013Z" fill="#A58A57"/>
<path d="M125.197 120.922C123.104 118.782 120.905 118.919 119.159 120.627C117.795 121.962 117.56 123.504 118.278 124.862L119.294 123.981C118.938 123.108 119.074 122.159 119.883 121.367C120.97 120.304 122.435 120.297 123.896 121.629L119.328 126.098L119.464 126.237C121.682 128.503 123.706 128.583 125.441 126.885C127.094 125.267 127.279 123.05 125.197 120.922ZM124.541 122.311C125.772 123.754 125.711 125.172 124.717 126.145C123.687 127.152 122.247 127.022 120.991 125.784L124.541 122.311Z" fill="#A58A57"/>
<path d="M120.843 129.322L118.558 131.048L114.149 125.214L113.013 126.072L117.423 131.907L115.138 133.633L115.84 134.562L121.545 130.251L120.843 129.322Z" fill="#A58A57"/>
<path d="M109.3 134.669L111.253 133.554L112.866 136.378L114.102 135.672L109.898 128.31L109.308 128.647L106.709 130.131C104.686 131.286 104.435 132.641 105.213 134.003C105.991 135.366 107.277 135.824 109.3 134.669ZM107.345 131.016L109.2 129.957L110.724 132.626L108.869 133.685C107.675 134.367 106.909 134.134 106.443 133.319C105.97 132.491 106.151 131.698 107.345 131.016Z" fill="#A58A57"/>
<path d="M92.0151 136.14L97.0781 139.108L94.8469 144.133L96.4762 143.598L98.1879 139.22L99.3253 138.846L100.457 142.289L101.81 141.845L99.1621 133.791L97.8096 134.235L98.9766 137.786L97.87 138.15L93.6904 135.589L92.0151 136.14Z" fill="#A58A57"/>
<path d="M92.4752 140.367C91.9881 137.644 90.1339 136.282 87.7449 136.71C85.356 137.137 84.1045 139.054 84.5917 141.777C85.0788 144.501 86.9171 145.865 89.306 145.437C91.695 145.01 92.9623 143.09 92.4752 140.367ZM91.0896 140.615C91.44 142.574 90.6862 144.056 89.1095 144.338C87.5487 144.618 86.3277 143.488 85.9773 141.529C85.6269 139.57 86.3807 138.088 87.9415 137.809C89.5182 137.527 90.7392 138.656 91.0896 140.615Z" fill="#A58A57"/>
<path d="M81.7179 146.214C81.8333 141.565 81.6994 138.801 82.8152 138.766C82.9445 138.762 83.0416 138.759 83.2038 138.77L83.1688 137.638C82.9414 137.613 82.714 137.588 82.4715 137.595C80.353 137.661 80.62 140.016 80.4206 145.088L77.1539 145.189L76.9282 137.88L75.5051 137.924L75.7668 146.397L81.7179 146.214Z" fill="#A58A57"/>
<path d="M71.2821 146.128C72.0749 141.546 72.3459 138.792 73.4548 138.921C73.5834 138.936 73.6798 138.947 73.8386 138.982L73.9693 137.857C73.748 137.798 73.5268 137.74 73.2857 137.712C71.1804 137.468 71.1007 139.836 70.1629 144.826L66.9166 144.449L67.7603 137.184L66.346 137.02L65.3679 145.441L71.2821 146.128Z" fill="#A58A57"/>
<path d="M64.0715 140.907C64.8324 138.012 63.5868 136.196 61.224 135.575C59.3776 135.089 57.9342 135.68 57.1374 136.993L58.4156 137.413C58.9819 136.658 59.8654 136.288 60.9608 136.576C62.4316 136.963 63.1896 138.216 62.7973 140.154L56.6165 138.529L56.5672 138.717C55.761 141.784 56.7324 143.561 59.0795 144.178C61.3171 144.766 63.3146 143.786 64.0715 140.907ZM62.5431 141.057C61.9367 142.855 60.6885 143.53 59.3428 143.177C57.9501 142.811 57.3223 141.508 57.7393 139.794L62.5431 141.057Z" fill="#A58A57"/>
<path d="M49.8149 131.607L51.7184 137.159L46.7502 139.514L48.3346 140.17L52.4867 137.968L53.5929 138.426L52.2061 141.774L53.5215 142.319L56.7656 134.486L55.4502 133.941L54.0201 137.394L52.9438 136.949L51.4442 132.282L49.8149 131.607Z" fill="#A58A57"/>
<path d="M49.2698 131.286L43.4332 127.838L44.5935 125.874L43.4373 125.191L41.6845 128.158L42.5481 128.668L38.8286 134.964L40.0405 135.68L43.76 129.384L47.4515 131.565L43.732 137.861L44.9578 138.585L49.2698 131.286Z" fill="#A58A57"/>
<path d="M32.2119 129.918L39.9713 126.601L35.2817 132.4L36.3511 133.265L41.6816 126.673L40.0209 125.33L32.2615 128.648L36.9511 122.848L35.8943 121.993L30.5638 128.586L32.2119 129.918Z" fill="#A58A57"/>
<path d="M23.49 121.395C24.9409 123.049 26.9106 123.258 28.8845 121.828L30.0366 123.142L27.3484 125.5L28.2872 126.57L34.661 120.98L33.7223 119.909L30.9124 122.374L29.7709 121.072C31.5511 119.274 31.6386 117.239 30.1558 115.548C28.5769 113.748 26.3927 113.662 24.2519 115.54C22.1111 117.418 21.9112 119.594 23.49 121.395ZM29.3165 116.285C30.3086 117.416 30.0577 118.97 28.4764 120.357C26.8951 121.744 25.3214 121.79 24.3293 120.658C23.3372 119.527 23.5987 117.985 25.18 116.598C26.7613 115.211 28.3243 115.153 29.3165 116.285Z" fill="#A58A57"/>
<path d="M20 103.228C20.2513 103.868 20.3662 104.517 20.3448 105.174C20.3312 105.828 20.1978 106.453 19.9446 107.048C19.6806 107.638 19.315 108.165 18.8477 108.628C18.3774 109.082 17.822 109.436 17.1816 109.687C16.5335 109.941 15.8862 110.06 15.2398 110.043C14.5825 110.022 13.9603 109.883 13.3731 109.627C12.775 109.366 12.2485 109 11.7936 108.53C11.3308 108.063 10.9738 107.509 10.7225 106.869C10.4681 106.22 10.3532 105.572 10.3777 104.922C10.3913 104.268 10.5301 103.646 10.7942 103.055C11.0473 102.46 11.4091 101.935 11.8794 101.48C12.3389 101.021 12.8927 100.664 13.5409 100.409C14.1812 100.158 14.83 100.043 15.4873 100.065C16.1415 100.078 16.7677 100.215 17.3657 100.476C17.9529 100.733 18.474 101.096 18.9289 101.566C19.3886 102.026 19.7456 102.58 20 103.228Z" fill="#A58A57"/>
<path d="M12.9316 89.0257C15.7882 88.6605 17.1339 86.9389 16.8303 84.5638C16.5841 82.638 15.3221 81.315 13.2972 81.2966L13.3572 82.659C14.7521 82.7254 15.5731 83.5338 15.7229 84.7053C15.9158 86.2139 14.8394 87.3628 12.7531 87.6295C10.6668 87.8962 9.33591 87.0551 9.14715 85.5787C9.00558 84.4713 9.52851 83.4584 10.8479 83.0614L10.5471 81.7298C8.60804 82.2549 7.80385 83.8747 8.03981 85.7202C8.33936 88.0633 10.0749 89.391 12.9316 89.0257Z" fill="#A58A57"/>
<path d="M7.83033 71.842L15.4331 74.8098L7.64267 77.2426L7.56007 79.6195L16.0328 79.9139L16.0806 78.5395L8.59416 78.2794L16.1778 75.7422L16.2396 73.9636L8.85094 70.89L16.3373 71.1501L16.3851 69.7757L7.91237 69.4813L7.83033 71.842Z" fill="#A58A57"/>
<path d="M12.4653 67.6904C15.1747 68.2502 17.1275 67.0346 17.6185 64.658C18.1096 62.2813 16.7952 60.4072 14.0858 59.8474C11.3764 59.2876 9.42685 60.4873 8.93579 62.8639C8.44472 65.2406 9.75587 67.1306 12.4653 67.6904ZM12.7501 66.3119C10.8012 65.9092 9.70495 64.6584 10.0291 63.0898C10.3499 61.5371 11.8521 60.8232 13.801 61.2258C15.7498 61.6285 16.8461 62.8793 16.5253 64.4321C16.2012 66.0007 14.6989 66.7146 12.7501 66.3119Z" fill="#A58A57"/>
<path d="M11.4636 57.9211L12.4089 55.2179L19.3119 57.632L19.7819 56.2881L12.8789 53.874L13.8243 51.1708L12.7247 50.7863L10.364 57.5365L11.4636 57.9211Z" fill="#A58A57"/>
<path d="M23.9387 54.2309L24.5845 52.962L20.2588 50.7603C21.5539 50.7841 22.6003 50.1548 23.1728 49.0302C24.1121 47.1845 23.3164 45.1456 20.8219 43.876C18.3275 42.6063 16.2106 43.1628 15.2712 45.0084C14.6548 46.2196 14.819 47.5376 15.7088 48.5715L14.0939 47.7495L13.4994 48.9174L23.9387 54.2309ZM17.8863 49.6435C16.1128 48.7408 15.3708 47.2739 16.0827 45.8752C16.7872 44.491 18.4099 44.2277 20.1834 45.1304C21.9569 46.0331 22.6989 47.5 21.9944 48.8842C21.2825 50.2829 19.6598 50.5462 17.8863 49.6435Z" fill="#A58A57"/>
<path d="M21.3702 42.9869C23.8224 44.7031 25.9577 44.1634 27.3585 42.1618C28.4531 40.5977 28.3986 39.039 27.4428 37.8369L26.6066 38.8907C27.1183 39.6833 27.1595 40.6403 26.5101 41.5681C25.6381 42.8142 24.2 43.0913 22.5179 42.0524L26.1822 36.8165L26.0231 36.7051C23.4251 34.8869 21.421 35.1827 20.0295 37.171C18.703 39.0665 18.9312 41.28 21.3702 42.9869ZM21.7584 41.5011C20.2817 40.3096 20.0801 38.9047 20.8779 37.7647C21.7035 36.585 23.1429 36.447 24.6063 37.4316L21.7584 41.5011Z" fill="#A58A57"/>
<path d="M24.1463 33.8265L26.0734 31.7082L31.4829 36.6293L32.4409 35.5761L27.0315 30.6551L28.9585 28.5368L28.0969 27.7529L23.2847 33.0426L24.1463 33.8265Z" fill="#A58A57"/>
<path d="M34.2563 26.6204L32.5495 28.0847L30.432 25.6166L29.3514 26.5436L34.8716 32.978L35.3873 32.5356L37.659 30.5867C39.4272 29.0697 39.4179 27.6921 38.396 26.501C37.3741 25.3099 36.0245 25.1034 34.2563 26.6204ZM36.8672 29.8377L35.2463 31.2283L33.2448 28.8952L34.8656 27.5046C35.9094 26.6092 36.7061 26.693 37.3172 27.4053C37.9387 28.1297 37.911 28.9423 36.8672 29.8377Z" fill="#A58A57"/>
<path d="M51.0882 21.7755L45.5553 19.8181L46.7962 14.4617L45.2976 15.2956L44.4444 19.9179L43.3982 20.5L41.636 17.3332L40.3919 18.0255L44.5142 25.4336L45.7583 24.7413L43.941 21.4755L44.9589 20.9091L49.5472 22.633L51.0882 21.7755Z" fill="#A58A57"/>
<path d="M49.8979 17.6657C50.8893 20.2487 52.9666 21.2363 55.2324 20.3667C57.4981 19.4971 58.3661 17.379 57.3748 14.7961C56.3834 12.2132 54.3212 11.2197 52.0554 12.0893C49.7897 12.9589 48.9066 15.0828 49.8979 17.6657ZM51.212 17.1614C50.499 15.3035 50.9601 13.7055 52.4555 13.1315C53.9357 12.5634 55.3476 13.4426 56.0607 15.3004C56.7737 17.1583 56.3126 18.7564 54.8324 19.3245C53.337 19.8984 51.9251 19.0193 51.212 17.1614Z" fill="#A58A57"/>
<path d="M59.3194 9.89359C60.0756 14.4823 60.724 17.1723 59.6343 17.4149C59.508 17.443 59.4132 17.4641 59.2518 17.4834L59.4979 18.5889C59.726 18.5713 59.9541 18.5537 60.191 18.5009C62.2598 18.0405 61.5571 15.7769 60.8043 10.7565L63.9944 10.0464L65.5833 17.1847L66.973 16.8754L65.1311 8.60004L59.3194 9.89359Z" fill="#A58A57"/>
<path d="M69.1736 8.05092C69.2554 12.7008 69.5064 15.4565 68.393 15.5382C68.264 15.5477 68.1672 15.5548 68.0046 15.5505L68.0875 16.68C68.3158 16.6957 68.5441 16.7114 68.7861 16.6936C70.8999 16.5384 70.5333 14.1968 70.5174 9.12027L73.7768 8.88095L74.3124 16.1743L75.7323 16.07L75.1115 7.61492L69.1736 8.05092Z" fill="#A58A57"/>
<path d="M77.6209 11.7846C77.4133 14.7705 78.9758 16.3226 81.4129 16.4921C83.3175 16.6246 84.6254 15.7749 85.1633 14.3364L83.8293 14.1626C83.4136 15.0094 82.6146 15.5377 81.4848 15.4591C79.9676 15.3536 78.9892 14.2638 79.0132 12.2869L85.3885 12.7303L85.402 12.5366C85.622 9.37314 84.3361 7.80785 81.9151 7.63946C79.6071 7.47893 77.8275 8.81479 77.6209 11.7846ZM79.0945 11.3519C79.3549 9.47245 80.4552 8.57589 81.8433 8.67243C83.2798 8.77234 84.1395 9.93497 84.0495 11.6965L79.0945 11.3519Z" fill="#A58A57"/>
<path d="M93.5069 18.2491L90.5947 13.1537L95.0322 9.90731L93.3527 9.56029L89.6881 12.5038L88.5156 12.2615L89.249 8.71239L87.8547 8.4243L86.1392 16.7268L87.5335 17.0149L88.2898 13.3548L89.4306 13.5905L91.7798 17.8922L93.5069 18.2491Z" fill="#A58A57"/>
<path d="M94.0095 18.4224L100.392 20.7083L99.6223 22.856L100.886 23.3088L102.049 20.0645L101.104 19.7262L103.57 12.8416L102.245 12.367L99.779 19.2516L95.7427 17.8059L98.2086 10.9212L96.8682 10.4411L94.0095 18.4224Z" fill="#A58A57"/>
<path d="M110.799 16.4145L103.809 21.1423L107.314 14.559L106.101 13.9126L102.116 21.3956L104.001 22.3994L110.991 17.6716L107.485 24.2549L108.685 24.8937L112.67 17.4107L110.799 16.4145Z" fill="#A58A57"/>
<path d="M121.316 23.3718C119.585 22.0134 117.61 22.1708 115.934 23.9402L114.559 22.8614L116.766 20.0486L115.646 19.1696L110.413 25.839L111.533 26.718L113.84 23.7778L115.202 24.8466C113.784 26.942 114.073 28.9583 115.842 30.3466C117.726 31.8249 119.888 31.5065 121.646 29.2664C123.404 27.0263 123.199 24.85 121.316 23.3718ZM116.531 29.4684C115.348 28.5395 115.308 26.9656 116.606 25.311C117.905 23.6564 119.443 23.3211 120.626 24.25C121.81 25.1789 121.837 26.7428 120.539 28.3974C119.24 30.052 117.715 30.3973 116.531 29.4684Z" fill="#A58A57"/>
<path d="M132.411 48.4296C132.044 47.8479 131.809 47.2322 131.706 46.5826C131.597 45.9375 131.61 45.2989 131.747 44.6669C131.896 44.0376 132.156 43.4518 132.528 42.9095C132.904 42.3742 133.383 41.9231 133.965 41.5559C134.554 41.1843 135.167 40.9459 135.805 40.8409C136.455 40.7384 137.092 40.7579 137.717 40.8992C138.354 41.0431 138.939 41.3033 139.475 41.6798C140.017 42.0518 140.472 42.5286 140.839 43.1104C141.211 43.6992 141.445 44.3149 141.543 44.9574C141.653 45.6025 141.633 46.2398 141.485 46.8691C141.348 47.5011 141.091 48.0847 140.715 48.6199C140.35 49.1577 139.873 49.6124 139.284 49.9841C138.703 50.3512 138.087 50.586 137.437 50.6885C136.792 50.798 136.151 50.7808 135.515 50.6369C134.89 50.4956 134.31 50.2367 133.775 49.8602C133.237 49.4953 132.782 49.0184 132.411 48.4296Z" fill="#A58A57"/>
</svg>
