<svg width="41" height="40" viewBox="0 0 41 40" fill="none" xmlns="http://www.w3.org/2000/svg">
<g clip-path="url(#clip0_2_5687)">
<path d="M40.4538 11.5204C40.4538 11.4936 40.4447 11.4758 40.4447 11.4491C40.4447 11.44 40.4357 11.4313 40.4357 11.4223C40.427 11.3955 40.427 11.3778 40.4179 11.351C40.4179 11.3423 40.4092 11.3333 40.4092 11.3242C40.4001 11.3065 40.3911 11.2797 40.3824 11.262C40.3824 11.2533 40.3824 11.2533 40.3733 11.2442L35.4803 1.32681C35.3281 1.02287 35.0183 0.829864 34.6781 0.828125H6.21011C5.87031 0.829864 5.5601 1.02287 5.40795 1.32681L0.51491 11.2442C0.51491 11.2533 0.51491 11.2533 0.505858 11.262C0.497154 11.2797 0.488102 11.3065 0.479398 11.3242C0.479398 11.3333 0.470346 11.3423 0.470346 11.351C0.459205 11.3733 0.453286 11.3976 0.45259 11.4223C0.45259 11.4313 0.443537 11.44 0.443537 11.4491C0.436226 11.472 0.433093 11.496 0.434833 11.5204V11.5468C0.434833 11.5826 0.425781 11.6094 0.425781 11.6449V38.2193C0.427174 38.7103 0.825469 39.1082 1.31707 39.1096H39.5802C40.0718 39.1082 40.4701 38.7103 40.4715 38.2193V11.6358C40.4729 11.6031 40.4698 11.5701 40.4625 11.5381C40.4618 11.5311 40.4586 11.5249 40.4538 11.5204ZM38.1451 10.7455H26.5406L25.07 2.60866H34.1256L38.1451 10.7455ZM15.9878 12.5261H24.9007V21.6513L24.6866 21.4287C24.5199 21.2528 24.2876 21.153 24.045 21.153C23.804 21.1537 23.5736 21.2496 23.4033 21.42L22.2356 22.6129L21.086 21.4287C20.9161 21.258 20.6852 21.1617 20.4443 21.1617C20.203 21.1617 19.9722 21.258 19.8023 21.4287L18.6527 22.6129L17.4849 21.42C17.315 21.2496 17.0842 21.1537 16.8433 21.153C16.6006 21.153 16.3684 21.2528 16.2016 21.4287L15.9878 21.6513V12.5261ZM23.2606 2.60866L24.7312 10.7455H16.1661L17.6277 2.60866H23.2606ZM6.76299 2.60866H15.8183L14.3477 10.7455H2.74314L6.76299 2.60866ZM2.20836 37.329V12.5261H14.2053V23.886C14.2056 24.2512 14.4284 24.5791 14.7679 24.7144C15.1073 24.8497 15.4952 24.7648 15.7469 24.5002L16.861 23.3251L18.0197 24.5092C18.19 24.6792 18.4208 24.7756 18.6617 24.7763C18.9002 24.777 19.1286 24.6806 19.2943 24.5092L20.4443 23.3251L21.5939 24.5092C21.7617 24.6779 21.9887 24.7735 22.2269 24.7763C22.4654 24.777 22.6938 24.6806 22.8595 24.5092L24.0182 23.3251L25.1323 24.5002C25.3029 24.6768 25.5375 24.7763 25.783 24.7763C25.8958 24.7773 26.0079 24.7561 26.1127 24.714C26.4522 24.5791 26.6746 24.2508 26.6743 23.886V12.5261H38.6799V37.329H2.20836Z" fill="#A58A57"/>
</g>
<defs>
<clipPath id="clip0_2_5687">
<rect width="40.046" height="40" fill="white" transform="translate(0.425781)"/>
</clipPath>
</defs>
</svg>
