<svg width="41" height="40" viewBox="0 0 41 40" fill="none" xmlns="http://www.w3.org/2000/svg">
<g clip-path="url(#clip0_2_5680)">
<path d="M38.4078 17.0799L33.4512 12.4978C32.3671 11.4958 30.9443 10.9392 29.4675 10.9398H26.9348V10.4287C26.9339 8.11589 25.057 6.24122 22.7415 6.24023H4.43353C2.11805 6.24122 0.241217 8.11589 0.240234 10.4287V29.1846C0.241545 29.6469 0.616321 30.021 1.07889 30.0223H3.69545C4.05745 32.1649 5.91495 33.7333 8.09022 33.7333C10.2652 33.7333 12.1227 32.1649 12.4847 30.0223H28.1004C28.4624 32.1649 30.3199 33.7333 32.4952 33.7333C34.6702 33.7333 36.5277 32.1649 36.8897 30.0223H39.4476C39.9101 30.021 40.2849 29.6469 40.2862 29.1846V21.3858C40.2918 19.751 39.6104 18.1888 38.4078 17.0799ZM37.2671 18.3116H32.3023V13.7209L32.3104 13.7291L37.2671 18.3116ZM4.43353 7.91562H22.7415C24.1293 7.91955 25.2533 9.04259 25.2575 10.4287V20.1375H1.91755V10.4287C1.92148 9.04259 3.04581 7.91955 4.43353 7.91562ZM8.09022 32.0579C6.55704 32.0579 5.31413 30.8164 5.31413 29.2854C5.31413 27.754 6.55704 26.5125 8.09022 26.5125C9.62307 26.5125 10.866 27.754 10.866 29.2854C10.8643 30.8158 9.62241 32.0563 8.09022 32.0579ZM8.09022 24.8286C5.98898 24.8315 4.17407 26.2962 3.72919 28.3469H1.91755V21.8129H25.2575V28.3469H12.4513C12.0087 26.2945 10.1921 24.8289 8.09022 24.8286ZM32.4952 32.0579C30.962 32.0579 29.7191 30.8164 29.7191 29.2854C29.7191 27.754 30.962 26.5125 32.4952 26.5125C34.0281 26.5125 35.271 27.754 35.271 29.2854C35.2693 30.8158 34.0274 32.0563 32.4952 32.0579ZM38.6174 28.3469H36.8562C36.414 26.2945 34.5971 24.8286 32.4952 24.8286C30.393 24.8286 28.5761 26.2945 28.1342 28.3469H26.9348V12.6152H29.4675C29.8587 12.6169 30.2479 12.6705 30.6249 12.7743V18.3116C30.6276 19.2356 31.3771 19.984 32.3023 19.9869H38.374C38.5355 20.4356 38.6178 20.9091 38.6174 21.3858V28.3469Z" fill="#777777"/>
<path d="M8.08902 26.8984C6.77337 26.8984 5.70703 27.9636 5.70703 29.2774C5.70703 30.5912 6.77337 31.6563 8.08902 31.6563C9.40434 31.6563 10.4707 30.5912 10.4707 29.2774C10.4687 27.9642 9.40336 26.9004 8.08902 26.8984ZM8.08902 29.9894C7.69983 29.9894 7.38435 29.6743 7.38435 29.2859C7.38435 28.8971 7.69983 28.582 8.08902 28.582C8.47789 28.582 8.79337 28.8971 8.79337 29.2859C8.79107 29.6733 8.4769 29.9871 8.08902 29.9894Z" fill="#777777"/>
<path d="M32.4972 26.8984C31.1816 26.8984 30.1152 27.9636 30.1152 29.2774C30.1152 30.5912 31.1816 31.6563 32.4972 31.6563C33.8125 31.6563 34.8789 30.5912 34.8789 29.2774C34.8769 27.9642 33.8115 26.9004 32.4972 26.8984ZM32.4972 29.9894C32.108 29.9894 31.7925 29.6743 31.7925 29.2859C31.7925 28.8971 32.108 28.582 32.4972 28.582C32.8861 28.582 33.2016 28.8971 33.2016 29.2859C33.1993 29.6733 32.8851 29.9871 32.4972 29.9894Z" fill="#777777"/>
<path d="M11.821 16.3353C11.9776 16.4953 12.1922 16.5857 12.4163 16.5866C12.6387 16.585 12.852 16.498 13.0118 16.3438L17.0456 12.3144C17.3722 11.9881 17.3722 11.4594 17.0456 11.1331C16.7193 10.8072 16.1899 10.8072 15.8633 11.1331L12.4248 14.5677L10.7557 12.8674C10.4317 12.5389 9.90225 12.5349 9.57334 12.8589C9.24443 13.1828 9.24082 13.7116 9.56482 14.0402L11.821 16.3353Z" fill="#777777"/>
</g>
<defs>
<clipPath id="clip0_2_5680">
<rect width="40.046" height="40" fill="white" transform="translate(0.240234)"/>
</clipPath>
</defs>
</svg>
