<svg width="42" height="40" viewBox="0 0 42 40" fill="none" xmlns="http://www.w3.org/2000/svg">
<g clip-path="url(#clip0_2_5685)">
<path d="M41.0922 11.0958V11.0635C41.0922 11.0471 41.0838 11.031 41.0838 11.0148C41.0838 11.0066 41.0753 10.9905 41.0753 10.9826C41.0753 10.9661 41.0672 10.9582 41.0672 10.9421C41.0672 10.9256 41.0588 10.9177 41.0506 10.9016C41.0484 10.8892 41.0425 10.8778 41.0338 10.869C41.0256 10.8529 41.0256 10.8367 41.0172 10.8285C41.0091 10.8206 41.0091 10.8124 41.0006 10.7962C40.9942 10.7817 40.9857 10.7681 40.9757 10.7557C40.9757 10.7475 40.9675 10.7475 40.9675 10.7396L36.6956 4.01762C36.5437 3.78003 36.2765 3.63609 35.9892 3.63672H5.97909C5.71743 3.63672 5.47103 3.75694 5.31423 3.96067L0.203087 10.6747C0.203087 10.6827 0.194646 10.6827 0.194646 10.6909C0.186206 10.707 0.17809 10.7152 0.169649 10.7314C0.159585 10.7393 0.153417 10.751 0.153092 10.7636C0.144652 10.7801 0.136536 10.788 0.128095 10.8041C0.119979 10.8124 0.119979 10.8285 0.111538 10.8367C0.103098 10.8529 0.103098 10.8611 0.0949818 10.8772C0.0865412 10.8851 0.0865412 10.9016 0.0784252 10.9177C0.0784252 10.9338 0.0699845 10.9421 0.0699845 10.9582C0.0699845 10.9743 0.0615439 10.9826 0.0615439 10.9987C0.0615439 11.0066 0.0534278 11.0231 0.0534278 11.031C0.05148 11.0446 0.0485583 11.0582 0.0449872 11.0715V13.6792C0.038819 14.7447 0.469617 15.7681 1.24194 16.522C1.82954 17.1003 2.5879 17.4853 3.41086 17.6236V35.6999C3.41216 36.1466 3.78355 36.5086 4.24194 36.5098H36.8952C37.3536 36.5086 37.725 36.1466 37.7263 35.6999V17.6153C39.6846 17.2759 41.1065 15.6096 41.0922 13.6713V11.0958ZM38.7733 10.3508H34.2024L31.4267 5.24857H35.5405L38.7733 10.3508ZM17.2318 5.24857L15.5946 10.3508H8.95409L12.3034 5.24857H17.2318ZM22.1601 5.24857L23.7973 10.3508H17.3399L18.977 5.24857H22.1601ZM29.5402 5.24857L32.3159 10.3508H25.5426L23.9054 5.24857H29.5402ZM17.0324 11.9705H24.0966V14.4002C24.0966 16.3012 22.515 17.8422 20.5645 17.8422C18.6138 17.8422 17.0324 16.3012 17.0324 14.4002V11.9705ZM8.31423 11.9705H15.3784V14.4002C15.3784 16.3012 13.7971 17.8422 11.8463 17.8422C9.89555 17.8422 8.31423 16.3012 8.31423 14.4002V11.9705ZM11.0568 19.4053C11.3152 19.4445 11.5765 19.4635 11.8382 19.4619C13.6013 19.4606 15.244 18.5888 16.2014 17.1455C17.162 18.5967 18.816 19.4701 20.5882 19.4619C22.3604 19.4537 24.0057 18.565 24.9524 17.105C25.9032 18.5723 27.5599 19.4619 29.3405 19.4619C29.5879 19.4622 29.8353 19.4458 30.0804 19.4132V28.176H11.0568V19.4053ZM29.3324 17.8422C27.3833 17.838 25.8046 16.2993 25.8003 14.4002V11.9705H32.8645V14.4002C32.8632 16.3005 31.2825 17.8409 29.3324 17.8422ZM6.39463 5.24857H10.3173L6.96794 10.3508H2.52167L6.39463 5.24857ZM1.69903 13.6713V11.9705H6.6024V13.6713C6.61571 14.8554 5.72749 15.8665 4.5247 16.0361C4.4312 16.0035 4.33284 15.987 4.23382 15.9873C4.11955 15.988 4.00657 16.0098 3.90139 16.0522C2.64471 15.9348 1.68897 14.9013 1.69903 13.6713ZM5.07302 34.8901V17.5831C5.8304 17.423 6.52351 17.0516 7.06761 16.5138L7.10916 16.4733C7.58444 17.4954 8.39019 18.3373 9.40307 18.8706V28.9859C9.40437 29.4329 9.77576 29.7945 10.2342 29.7957H30.9115C31.3699 29.7945 31.7413 29.4329 31.7426 28.9859V18.8868C32.7671 18.366 33.5855 17.5286 34.0696 16.5059L34.0777 16.5138C34.6244 17.0484 35.3165 17.4195 36.0723 17.5831V34.8901H5.07302ZM39.43 13.6713C39.4391 14.9038 38.4788 15.9383 37.2192 16.0522C37.1137 16.0098 37.0008 15.988 36.8868 15.9873C36.7878 15.987 36.6894 16.0035 36.5959 16.0361C35.3935 15.8662 34.5052 14.8554 34.5182 13.6713V11.9705H39.4216V13.6713H39.43Z" fill="#777777"/>
</g>
<defs>
<clipPath id="clip0_2_5685">
<rect width="41.0472" height="40" fill="white" transform="translate(0.0449219)"/>
</clipPath>
</defs>
</svg>
