<svg width="107" height="107" viewBox="0 0 107 107" fill="none" xmlns="http://www.w3.org/2000/svg">
<path d="M97.5207 56.6415C97.4969 57.003 97.5857 57.3261 97.7871 57.6107C97.9884 57.8952 98.2524 58.0629 98.5791 58.1137L98.5162 59.0722C98.1778 59.0317 97.8623 58.8936 97.5698 58.658C97.2772 58.4224 97.0515 58.1179 96.8927 57.7444C96.7336 57.3746 96.6673 56.9889 96.6936 56.5872C96.7466 55.7802 97.0572 55.1552 97.6254 54.7121C98.197 54.2729 98.9502 54.084 99.8849 54.1454L100.055 54.1566C100.632 54.1945 101.138 54.3341 101.573 54.5754C102.008 54.8166 102.337 55.1426 102.559 55.5533C102.781 55.9676 102.875 56.4449 102.839 56.9854C102.796 57.6499 102.56 58.1882 102.134 58.6002C101.707 59.0159 101.175 59.2175 100.537 59.205L100.6 58.2465C100.986 58.2425 101.309 58.117 101.571 57.8702C101.836 57.6272 101.982 57.3141 102.007 56.9307C102.041 56.4158 101.881 56.0038 101.527 55.6945C101.177 55.3891 100.651 55.2134 99.9498 55.1673L99.7581 55.1548C99.0753 55.1099 98.5403 55.216 98.153 55.4729C97.7658 55.7298 97.555 56.1194 97.5207 56.6415Z" fill="white"/>
<path d="M97.1399 63.4725L101.174 66.4577L100.894 67.6943L95.1018 66.3819L95.3262 65.3915L99.5392 66.3461L95.7507 63.5179L95.9059 62.8327L100.643 61.8968L96.339 60.9216L96.5634 59.9312L102.356 61.2436L102.064 62.5284L97.1399 63.4725Z" fill="white"/>
<path d="M97.4561 68.7619C97.9937 68.9845 98.4337 69.2896 98.7762 69.677C99.1174 70.0678 99.3269 70.4992 99.4047 70.9711C99.4812 71.4463 99.4193 71.9257 99.219 72.4091C98.9096 73.1563 98.401 73.6526 97.6933 73.8982C96.9842 74.1471 96.2003 74.0937 95.3416 73.7381L95.2757 73.7108C94.7415 73.4895 94.3041 73.1876 93.9636 72.8049C93.625 72.427 93.4165 71.9981 93.3381 71.518C93.2582 71.0414 93.3206 70.5562 93.525 70.0626C93.833 69.3189 94.3416 68.8225 95.0507 68.5736C95.7584 68.328 96.5382 68.3817 97.3902 68.7346L97.4561 68.7619ZM96.9539 69.6589C96.3453 69.4069 95.7987 69.3448 95.314 69.4728C94.8279 69.6042 94.4868 69.9065 94.2907 70.3798C94.0933 70.8565 94.1224 71.3121 94.3781 71.7468C94.6371 72.1828 95.103 72.5402 95.7758 72.8188C96.3776 73.0681 96.9239 73.126 97.4148 72.9927C97.9077 72.8641 98.2522 72.5632 98.4482 72.0899C98.6401 71.6267 98.6105 71.1768 98.3597 70.7402C98.1088 70.3036 97.6402 69.9432 96.9539 69.6589Z" fill="white"/>
<path d="M94.2321 79.9972L95.2328 78.2743L90.8093 75.7049L91.3193 74.8268L95.7429 77.3962L96.7243 75.7065L97.4363 76.1201L94.944 80.4108L94.2321 79.9972Z" fill="white"/>
<path d="M88.5167 83.9263C87.8016 83.3735 87.3519 82.7645 87.1676 82.0994C86.9834 81.4343 87.1072 80.8224 87.5392 80.2637C87.98 79.6933 88.5079 79.3845 89.1227 79.3371L86.8602 77.5881L87.4812 76.7847L93.9865 81.8135L93.4192 82.5474L92.8678 82.1837C93.0202 82.8241 92.8715 83.4353 92.4217 84.0172C91.9853 84.5818 91.4278 84.8631 90.7493 84.8613C90.0686 84.8623 89.349 84.5697 88.5905 83.9833L88.5167 83.9263ZM89.2289 83.1934C89.7587 83.6029 90.2643 83.8134 90.7458 83.8248C91.2272 83.8362 91.6201 83.6451 91.9245 83.2513C92.3005 82.765 92.3668 82.2335 92.1234 81.6568L89.8783 79.9212C89.2641 79.8303 88.7656 80.0323 88.3829 80.5274C88.0852 80.9124 88.0011 81.3354 88.1305 81.7962C88.2606 82.2621 88.6267 82.7279 89.2289 83.1934Z" fill="white"/>
<path d="M83.5211 84.6967C84.0966 84.1337 84.749 83.8639 85.4785 83.8874C86.2105 83.9135 86.8862 84.243 87.5055 84.876L87.636 85.0094C88.048 85.4305 88.3355 85.8839 88.4984 86.3695C88.6612 86.8604 88.6897 87.3394 88.5836 87.8066C88.4776 88.279 88.2558 88.6803 87.9184 89.0104C87.3665 89.5504 86.7597 89.7883 86.098 89.7242C85.4362 89.66 84.774 89.2892 84.1111 88.6118L83.8156 88.3097L86.6914 85.4959C86.2714 85.0877 85.8184 84.8679 85.3323 84.8368C84.8461 84.8108 84.4225 84.9744 84.0616 85.3275C83.8052 85.5783 83.6393 85.843 83.5638 86.1217C83.4883 86.4003 83.4683 86.6912 83.5039 86.9944L82.7227 87.0829C82.5436 86.1882 82.8097 85.3928 83.5211 84.6967ZM87.3349 88.414C87.6279 88.1274 87.7688 87.7796 87.7578 87.3707C87.7492 86.9643 87.5804 86.5458 87.2513 86.1153L85.1249 88.1959L85.1786 88.2508C85.5604 88.5991 85.9387 88.787 86.3136 88.8144C86.6911 88.8443 87.0315 88.7109 87.3349 88.414Z" fill="white"/>
<path d="M80.6931 93.7661L82.2827 92.5648L79.1984 88.4835L80.0086 87.8712L83.0929 91.9526L84.6518 90.7745L85.1482 91.4313L81.1895 94.423L80.6931 93.7661Z" fill="white"/>
<path d="M77.9395 94.0131L76.6002 94.7779C76.0118 95.1055 75.4624 95.217 74.9518 95.1124C74.4412 95.0079 74.0398 94.6998 73.7477 94.1882C73.4537 93.6734 73.3926 93.1605 73.5643 92.6495C73.736 92.1385 74.1174 91.7142 74.7085 91.3767L76.8916 90.1301L79.8366 95.2875L78.9548 95.791L77.9395 94.0131ZM77.5285 93.2933L76.4207 91.3534L75.11 92.1019C74.7795 92.2906 74.5718 92.5209 74.4868 92.7927C74.4037 93.0678 74.4465 93.353 74.6152 93.6486C74.7785 93.9345 75.0009 94.1173 75.2823 94.1968C75.5623 94.2813 75.863 94.236 76.1844 94.0609L77.5285 93.2933Z" fill="white"/>
<path d="M68.2613 97.0066L68.9653 96.7752L68.1751 94.3713L69.145 94.0525L70.9996 99.6945L70.0297 100.013L69.2447 97.6251L68.6137 97.8326L67.5007 100.845L66.3327 101.229L67.6732 97.7835L64.2904 95.6483L65.5158 95.2455L68.2613 97.0066Z" fill="white"/>
<path d="M64.3864 98.7148C64.4888 99.2876 64.4693 99.8226 64.3278 100.32C64.1827 100.818 63.9324 101.227 63.5771 101.547C63.2181 101.868 62.781 102.074 62.2659 102.167C61.4699 102.309 60.7776 102.148 60.1891 101.685C59.5971 101.222 59.2192 100.533 59.0555 99.6182L59.043 99.5479C58.9412 98.9788 58.9595 98.4477 59.0981 97.9545C59.2337 97.4656 59.4824 97.0586 59.8444 96.7337C60.2027 96.4094 60.6448 96.2002 61.1707 96.1061C61.9632 95.9643 62.6555 96.1249 63.2475 96.5878C63.836 97.0512 64.2114 97.7369 64.3738 98.6446L64.3864 98.7148ZM63.3601 98.7757C63.2441 98.1274 63.0015 97.6336 62.6323 97.2944C62.2595 96.9559 61.821 96.8318 61.3167 96.922C60.8088 97.0128 60.4408 97.2831 60.2127 97.7328C59.9852 98.1861 59.9356 98.7712 60.0638 99.488C60.1785 100.129 60.4244 100.621 60.8014 100.962C61.1755 101.308 61.6147 101.435 62.119 101.345C62.6125 101.257 62.9754 100.989 63.2078 100.543C63.4401 100.096 63.4909 99.507 63.3601 98.7757Z" fill="white"/>
<path d="M52.6603 102.882L52.477 96.9462L53.4974 96.9147L53.6549 102.012L55.6738 101.949L55.7259 99.7235C55.7602 98.701 55.9096 97.966 56.174 97.5185C56.4348 97.0711 56.8648 96.829 57.464 96.7922L57.87 96.7797L57.8977 97.6739L57.6076 97.7049C57.2795 97.7516 57.0495 97.9491 56.9174 98.2973C56.7854 98.6455 56.7136 99.2847 56.7021 100.215L56.6708 102.759L52.6603 102.882Z" fill="white"/>
<path d="M45.263 102.208L45.9482 96.3091L46.9623 96.4269L46.374 101.492L48.3804 101.725L48.7569 99.5308C48.9401 98.5243 49.1952 97.819 49.5221 97.4149C49.8453 97.0104 50.3061 96.8337 50.9043 96.8847L51.3078 96.9316L51.2046 97.8203L50.9131 97.8086C50.5817 97.8069 50.3253 97.9687 50.1439 98.2939C49.9624 98.6191 49.7981 99.241 49.6509 100.16L49.2486 102.671L45.263 102.208Z" fill="white"/>
<path d="M42.1536 95.2784C42.9322 95.4831 43.4987 95.9044 43.8532 96.5424C44.2067 97.184 44.2709 97.933 44.0457 98.7894L43.9983 98.9699C43.8485 99.5397 43.6071 100.019 43.274 100.408C42.9364 100.8 42.5399 101.07 42.0846 101.219C41.6248 101.371 41.1666 101.387 40.7101 101.267C39.9633 101.07 39.4476 100.672 39.1628 100.071C38.878 99.4704 38.8561 98.7117 39.0971 97.7951L39.2045 97.3863L43.0957 98.4092C43.2304 97.8392 43.1863 97.3376 42.9635 96.9045C42.7361 96.4739 42.3782 96.1944 41.8898 96.0661C41.543 95.9749 41.2307 95.9684 40.9528 96.0468C40.6749 96.1251 40.4151 96.2573 40.1732 96.4434L39.6961 95.8186C40.3718 95.2054 41.191 95.0254 42.1536 95.2784ZM40.9222 100.46C41.3185 100.564 41.6894 100.506 42.0346 100.287C42.3789 100.071 42.6513 99.7112 42.8518 99.2077L39.9745 98.4514L39.955 98.5257C39.8521 99.0321 39.8852 99.4532 40.0542 99.789C40.2223 100.128 40.5116 100.352 40.9222 100.46Z" fill="white"/>
<path d="M36.3197 96.0949L37.0043 96.3785L37.9726 94.0406L38.9159 94.4313L36.6432 99.9183L35.7 99.5276L36.662 97.2051L36.0484 96.9509L33.2405 98.509L32.1045 98.0385L35.3672 96.3004L34.1946 92.4759L35.3863 92.9694L36.3197 96.0949Z" fill="white"/>
<path d="M30.5833 97.2539L29.7043 96.7346L32.3034 92.3348L29.9499 90.9445L27.3507 95.3443L26.4765 94.8278L29.0756 90.428L28.466 90.0678L29.8688 87.8875L30.6533 88.3509L29.7571 89.8679L33.604 92.1404L30.5833 97.2539Z" fill="white"/>
<path d="M21.4524 91.0146L20.6628 90.3761L24.397 85.7579L25.1866 86.3963L22.4636 89.764L27.3164 88.1185L28.1061 88.757L24.3719 93.3752L23.5823 92.7367L26.3087 89.3648L21.4524 91.0146Z" fill="white"/>
<path d="M20.0608 86.3501L19.1198 85.2772C18.4749 85.7406 17.813 85.9487 17.1341 85.9017C16.4501 85.8543 15.8643 85.5527 15.377 84.997C14.8654 84.4137 14.6435 83.7639 14.7112 83.0475C14.7789 82.331 15.1144 81.6814 15.7179 81.0986L15.9536 80.8846C16.3883 80.5033 16.8551 80.2448 17.3541 80.1089C17.8531 79.9731 18.3326 79.976 18.7927 80.1176C19.25 80.2617 19.6524 80.5318 19.9999 80.9279C20.5041 81.5029 20.7296 82.1374 20.6764 82.8315C20.6204 83.5279 20.3118 84.1612 19.7507 84.7312L20.6881 85.8L22.6317 84.0953L23.3013 84.8588L18.8362 88.7748L18.1667 88.0113L20.0608 86.3501ZM18.849 84.1859C19.3442 83.7516 19.6416 83.2888 19.7412 82.7974C19.8384 82.3033 19.7169 81.8623 19.3767 81.4744C19.0365 81.0865 18.6148 80.9137 18.1116 80.9559C17.6059 80.9954 17.0808 81.254 16.536 81.7317C16.0491 82.1588 15.7543 82.6218 15.6516 83.1207C15.5489 83.6196 15.6664 84.0617 16.0042 84.4468C16.3372 84.8265 16.7549 85.0004 17.2575 84.9685C17.76 84.9366 18.2905 84.6757 18.849 84.1859Z" fill="white"/>
<path d="M13.5839 71.8446C13.7585 72.2895 13.8384 72.7403 13.8235 73.197C13.814 73.6515 13.7214 74.0855 13.5455 74.4989C13.362 74.909 13.108 75.2749 12.7833 75.5964C12.4565 75.9125 12.0706 76.1578 11.6257 76.3324C11.1754 76.5092 10.7256 76.5917 10.2765 76.5801C9.81982 76.5652 9.38748 76.4688 8.9795 76.2908C8.56395 76.1094 8.19814 75.8554 7.88205 75.5286C7.56053 75.2039 7.31247 74.8191 7.13786 74.3742C6.96113 73.9238 6.88128 73.473 6.8983 73.0218C6.90777 72.5672 7.00423 72.1349 7.18767 71.7248C7.36356 71.3114 7.6149 70.9466 7.94169 70.6305C8.26093 70.3111 8.64573 70.0631 9.09608 69.8863C9.54102 69.7117 9.99182 69.6319 10.4485 69.6468C10.9031 69.6562 11.3381 69.7516 11.7536 69.933C12.1616 70.111 12.5237 70.3634 12.8398 70.6902C13.1591 71.0094 13.4072 71.3942 13.5839 71.8446Z" fill="white"/>
<path d="M9.72498 58.9211C9.67904 58.5618 9.53 58.2617 9.27788 58.0209C9.02576 57.7802 8.7345 57.6662 8.40411 57.6789L8.28229 56.7261C8.62218 56.7011 8.95826 56.7762 9.29054 56.9513C9.62282 57.1265 9.90267 57.3822 10.1301 57.7183C10.3571 58.0508 10.4961 58.4167 10.5471 58.816C10.6497 59.6182 10.4646 60.2911 9.99178 60.8348C9.5149 61.3754 8.81186 61.705 7.88265 61.8238L7.71386 61.8454C7.14036 61.9187 6.61693 61.8787 6.14355 61.7252C5.67018 61.5718 5.28502 61.3148 4.98808 60.9544C4.69068 60.5903 4.50764 60.1396 4.43895 59.6024C4.3545 58.9418 4.48225 58.3684 4.8222 57.8823C5.16169 57.3925 5.64537 57.0927 6.27323 56.9829L6.39505 57.9358C6.01764 58.0135 5.72404 58.1986 5.51426 58.491C5.30038 58.7803 5.21781 59.1155 5.26654 59.4966C5.33197 60.0084 5.5679 60.3822 5.97433 60.618C6.37667 60.8506 6.92629 60.9224 7.6232 60.8333L7.81376 60.8089C8.49252 60.7221 8.99734 60.5156 9.32821 60.1892C9.65908 59.8629 9.79134 59.4401 9.72498 58.9211Z" fill="white"/>
<path d="M8.80238 51.8995L4.28107 49.7212L4.3251 48.4541L10.2605 48.6603L10.2253 49.6752L5.90809 49.5251L10.1586 51.5951L10.1342 52.2973L5.65567 54.1024L10.0661 54.2557L10.0308 55.2705L4.0954 55.0642L4.14115 53.7477L8.80238 51.8995Z" fill="white"/>
<path d="M7.50221 46.7134C6.93242 46.5956 6.44292 46.3787 6.03371 46.0624C5.62524 45.7426 5.33847 45.3583 5.17339 44.9094C5.00905 44.457 4.97982 43.9745 5.08571 43.4621C5.24934 42.6701 5.65566 42.0871 6.30465 41.713C6.95438 41.3353 7.73436 41.2405 8.64459 41.4286L8.71447 41.443C9.28068 41.56 9.76696 41.7745 10.1733 42.0864C10.5769 42.3939 10.8622 42.7761 11.0294 43.2329C11.1973 43.6861 11.2272 44.1743 11.1191 44.6975C10.9562 45.4859 10.5499 46.0689 9.90017 46.4466C9.25119 46.8207 8.47516 46.9144 7.57209 46.7278L7.50221 46.7134ZM7.82705 45.738C8.4721 45.8713 9.02066 45.8295 9.47273 45.6128C9.92553 45.3925 10.2038 45.0315 10.3074 44.5298C10.4118 44.0245 10.2977 43.5824 9.96492 43.2035C9.6286 42.8239 9.10387 42.5604 8.39074 42.4131C7.75286 42.2813 7.20535 42.3269 6.74822 42.5501C6.28825 42.7689 6.00643 43.1292 5.90277 43.6309C5.80133 44.1219 5.91481 44.5582 6.24323 44.9399C6.57164 45.3217 7.09958 45.5877 7.82705 45.738Z" fill="white"/>
<path d="M8.5174 35.1723L7.85965 37.0531L12.6886 38.7419L12.3534 39.7004L7.52444 38.0117L6.87939 39.8562L6.1022 39.5844L7.74021 34.9006L8.5174 35.1723Z" fill="white"/>
<path d="M13.3914 30.2249C14.1969 30.6349 14.7521 31.1494 15.057 31.7686C15.3618 32.3877 15.3541 33.012 15.0337 33.6414C14.7067 34.2839 14.2456 34.6856 13.6504 34.8466L16.199 36.1438L15.7384 37.0488L8.41056 33.319L8.83134 32.4923L9.44075 32.7471C9.17176 32.1462 9.20408 31.518 9.53772 30.8625C9.8614 30.2266 10.3567 29.8464 11.0237 29.7218C11.6923 29.5941 12.4538 29.7476 13.3082 30.1825L13.3914 30.2249ZM12.828 31.0775C12.2313 30.7738 11.6953 30.6611 11.2201 30.7395C10.745 30.818 10.3945 31.0789 10.1688 31.5224C9.88992 32.0703 9.92373 32.6049 10.2702 33.1261L12.7992 34.4134C13.4197 34.3884 13.8718 34.097 14.1556 33.5394C14.3764 33.1057 14.3803 32.6745 14.1674 32.2458C13.9528 31.8122 13.5064 31.4228 12.828 31.0775Z" fill="white"/>
<path d="M18.1282 28.5589C17.6666 29.2184 17.0752 29.604 16.3539 29.7156C15.6297 29.8251 14.9048 29.626 14.1793 29.1182L14.0264 29.0112C13.5437 28.6734 13.1775 28.2809 12.9277 27.8336C12.677 27.3813 12.5607 26.9158 12.5786 26.437C12.5956 25.9532 12.7395 25.5179 13.0101 25.1311C13.4529 24.4985 14.0053 24.1527 14.6675 24.0935C15.3297 24.0344 16.0491 24.2766 16.8256 24.82L17.1718 25.0623L14.8649 28.3586C15.353 28.6824 15.8388 28.8147 16.3224 28.7556C16.805 28.6913 17.1911 28.4524 17.4806 28.0387C17.6863 27.7448 17.8004 27.454 17.8232 27.1663C17.8459 26.8785 17.8119 26.5889 17.721 26.2975L18.4724 26.0663C18.8136 26.9125 18.6989 27.7434 18.1282 28.5589ZM13.6937 25.6095C13.4587 25.9453 13.3844 26.3131 13.4708 26.713C13.5542 27.1108 13.7973 27.4909 14.2003 27.8533L15.9061 25.4159L15.8431 25.3718C15.4036 25.1 14.9971 24.9852 14.6236 25.0275C14.247 25.0677 13.9371 25.2617 13.6937 25.6095Z" fill="white"/>
<path d="M19.2674 19.0524L17.9266 20.5263L21.7107 23.9688L21.0274 24.7199L17.2433 21.2774L15.9283 22.7229L15.3193 22.1688L18.6584 18.4984L19.2674 19.0524Z" fill="white"/>
<path d="M21.7526 18.438L22.9233 17.4337C23.439 17.0008 23.9575 16.7875 24.4786 16.7936C24.9998 16.7997 25.4522 17.0263 25.8358 17.4735C26.2218 17.9234 26.3787 18.4155 26.3067 18.9498C26.2347 19.484 25.9405 19.9728 25.4239 20.4159L23.5159 22.0528L19.6488 17.5453L20.4195 16.8841L21.7526 18.438ZM22.2923 19.067L23.7469 20.7626L24.8925 19.7797C25.1814 19.5319 25.3418 19.2665 25.3738 18.9835C25.4035 18.6977 25.3075 18.4257 25.0859 18.1674C24.8715 17.9175 24.6186 17.78 24.3272 17.7552C24.0363 17.7251 23.7496 17.8265 23.4671 18.0592L22.2923 19.067Z" fill="white"/>
<path d="M30.7891 13.5749L30.1416 13.9352L31.372 16.1463L30.4798 16.6427L27.592 11.4531L28.4842 10.9567L29.7065 13.1534L30.2869 12.8305L30.8104 9.66222L31.8848 9.06438L31.2198 12.7008L34.9453 14.1579L33.8181 14.7852L30.7891 13.5749Z" fill="white"/>
<path d="M34.3127 11.1302C34.1042 10.587 34.0227 10.0578 34.0679 9.54263C34.1166 9.02616 34.2854 8.57728 34.5741 8.19602C34.8663 7.81344 35.2566 7.5284 35.7451 7.3409C36.5001 7.05112 37.2103 7.07842 37.8755 7.42279C38.5441 7.76585 39.045 8.37125 39.378 9.23899L39.4036 9.30561C39.6108 9.84539 39.6928 10.3705 39.6496 10.8809C39.6085 11.3866 39.4408 11.8332 39.1466 12.2205C38.8557 12.6065 38.4609 12.8952 37.9621 13.0866C37.2105 13.3751 36.5004 13.3478 35.8318 13.0047C35.1665 12.6603 34.6687 12.0577 34.3383 11.1968L34.3127 11.1302ZM35.3091 10.8771C35.5452 11.492 35.8764 11.9313 36.3029 12.1948C36.7328 12.457 37.1869 12.4964 37.6651 12.3128C38.1468 12.1279 38.4573 11.7932 38.5967 11.3086C38.7347 10.8205 38.6732 10.2366 38.4123 9.55673C38.1789 8.94863 37.8449 8.51241 37.4103 8.24807C36.9778 7.979 36.5224 7.93625 36.0441 8.11981C35.5761 8.29945 35.27 8.63052 35.126 9.11304C34.9819 9.59556 35.043 10.1836 35.3091 10.8771Z" fill="white"/>
<path d="M45.0189 4.83177L46.3092 10.6289L45.3126 10.8507L44.2048 5.87333L42.2331 6.31218L42.5982 8.50833C42.7557 9.5192 42.7465 10.2692 42.5704 10.7582C42.3979 11.2465 42.0208 11.5647 41.4389 11.7129L41.0425 11.8012L40.8481 10.9279L41.1273 10.8432C41.4408 10.736 41.6298 10.4989 41.6944 10.1322C41.759 9.76542 41.7099 9.12404 41.5473 8.20804L41.1023 5.70351L45.0189 4.83177Z" fill="white"/>
<path d="M52.1199 4.12761L52.5548 10.0507L51.5366 10.1254L51.1632 5.03992L49.1487 5.18784L49.1911 7.41373C49.2001 8.43675 49.0821 9.17741 48.8369 9.63571C48.5953 10.0937 48.1759 10.3539 47.5788 10.4161L47.1737 10.4458L47.1082 9.5535L47.3967 9.5103C47.7225 9.44969 47.9439 9.24264 48.0611 8.88914C48.1782 8.53564 48.2228 7.89393 48.1949 6.96402L48.1183 4.42143L52.1199 4.12761Z" fill="white"/>
<path d="M56.7436 10.3274C55.9405 10.2715 55.3054 9.96327 54.8382 9.40256C54.3712 8.83821 54.1684 8.11432 54.2299 7.23091L54.2428 7.04473C54.2837 6.45701 54.4315 5.94091 54.6862 5.49644C54.9447 5.04857 55.2838 4.70901 55.7034 4.47776C56.1269 4.2431 56.5741 4.14216 57.045 4.17491C57.8152 4.22848 58.3963 4.52383 58.7881 5.06095C59.1799 5.59807 59.3429 6.33937 59.2772 7.28484L59.2478 7.70647L55.2341 7.42731C55.2081 8.0124 55.345 8.49694 55.6447 8.88093C55.9484 9.26153 56.3521 9.46934 56.8559 9.50438C57.2136 9.52926 57.5217 9.47733 57.7801 9.34857C58.0385 9.21982 58.2691 9.04145 58.4721 8.81347L59.0573 9.33837C58.5078 10.0668 57.7365 10.3965 56.7436 10.3274ZM56.9871 5.00721C56.5782 4.97878 56.2247 5.10458 55.9264 5.38462C55.6284 5.66101 55.4279 6.06523 55.3249 6.59728L58.2927 6.8037L58.298 6.72704C58.3046 6.2103 58.1936 5.80275 57.9649 5.5044C57.7365 5.20239 57.4105 5.03667 56.9871 5.00721Z" fill="white"/>
<path d="M62.4193 8.42893L61.6936 8.27899L61.1816 10.757L60.1818 10.5505L61.3835 4.73429L62.3833 4.94087L61.8746 7.4028L62.5251 7.53719L64.9904 5.47954L66.1945 5.72833L63.3163 8.04817L65.1863 11.5845L63.923 11.3235L62.4193 8.42893Z" fill="white"/>
<path d="M67.7643 6.18178L68.7254 6.52605L67.0022 11.337L69.5756 12.2587L71.2988 7.44778L72.2548 7.7902L70.5316 12.6011L71.1982 12.8399L70.2316 15.2456L69.3738 14.9383L69.9679 13.2796L65.7616 11.773L67.7643 6.18178Z" fill="white"/>
<path d="M77.7513 10.4936L78.6476 10.9709L75.8561 16.213L74.9598 15.7357L76.9953 11.9132L72.5422 14.4484L71.6459 13.9711L74.4374 8.72897L75.3337 9.20626L73.2956 13.0337L77.7513 10.4936Z" fill="white"/>
<path d="M80.2431 14.9529L81.3658 15.834C81.9142 15.2596 82.5264 14.933 83.2023 14.8541C83.8834 14.7745 84.5146 14.9629 85.0961 15.4193C85.7064 15.8982 86.0444 16.496 86.1099 17.2126C86.1755 17.9292 85.9655 18.6296 85.4798 19.3137L85.2876 19.5675C84.9307 20.0223 84.5195 20.3625 84.0541 20.588C83.5887 20.8136 83.1169 20.8992 82.6386 20.8448C82.1626 20.7875 81.7173 20.5962 81.3028 20.2709C80.7011 19.7988 80.3625 19.2167 80.2868 18.5247C80.2135 17.8299 80.4 17.1506 80.8464 16.4869L79.728 15.6093L78.132 17.6431L77.3331 17.0162L80.9996 12.3441L81.7985 12.9709L80.2431 14.9529ZM81.8331 16.8566C81.4265 17.3748 81.2195 17.8845 81.2122 18.3858C81.2078 18.8893 81.4085 19.3004 81.8144 19.6189C82.2203 19.9374 82.6667 20.0295 83.1535 19.8952C83.6432 19.7632 84.1117 19.4122 84.559 18.8422C84.9588 18.3327 85.1632 17.8233 85.1722 17.314C85.1811 16.8047 84.9841 16.3919 84.5811 16.0756C84.1838 15.7639 83.7412 15.67 83.2531 15.794C82.7651 15.918 82.2917 16.2722 81.8331 16.8566Z" fill="white"/>
<path d="M92.2876 33.4684C92.0325 33.0642 91.8694 32.6364 91.7982 32.1851C91.7221 31.7368 91.7316 31.2932 91.8266 30.8541C91.9298 30.4168 92.1106 30.0097 92.369 29.6329C92.6306 29.2611 92.9635 28.9476 93.3677 28.6925C93.7768 28.4343 94.203 28.2687 94.6463 28.1957C95.0977 28.1245 95.5404 28.138 95.9746 28.2362C96.4168 28.3362 96.8238 28.517 97.1957 28.7786C97.5725 29.037 97.8885 29.3684 98.1435 29.7726C98.4018 30.1817 98.5649 30.6095 98.633 31.0559C98.7091 31.5041 98.6956 31.9469 98.5925 32.3841C98.4974 32.8232 98.3191 33.2287 98.0575 33.6006C97.8039 33.9743 97.4726 34.2902 97.0635 34.5484C96.6593 34.8035 96.2315 34.9667 95.7802 35.0379C95.3319 35.114 94.8867 35.102 94.4445 35.002C94.0103 34.9038 93.6073 34.7239 93.2355 34.4624C92.8618 34.2088 92.5458 33.8775 92.2876 33.4684Z" fill="white"/>
</svg>
