<svg width="80" height="41" viewBox="0 0 80 41" fill="none" xmlns="http://www.w3.org/2000/svg">
<path d="M65.117 32.5591L40.6778 8.84426L40.2566 8.44141L39.8409 8.84963L15.6758 32.5591H17.333L40.2695 10.0654L63.4432 32.5591H65.117Z" fill="#A58A57"/>
<path d="M11.6446 32.56L40.3568 3.25678L69.1306 32.56H71.1484L40.3423 1.20703L9.64844 32.56H11.6446Z" fill="#A58A57"/>
<path d="M0 41.0005L79.5882 40.9787L75.3933 37.3828H4.29978L0 41.0005Z" fill="#A58A57"/>
<path d="M57.4623 18.5877C61.0598 17.3525 63.1049 15.5559 63.1049 12.3483C63.1049 7.83861 59.156 6.88595 54.1473 6.88595C53.5115 6.88595 51.8232 6.99099 50.8686 6.99099C50.3034 6.99099 48.1514 6.92217 47.2692 6.88595C47.4993 8.68622 47.5482 14.0128 47.5536 17.9556C46.5954 16.5145 45.1978 15.4207 43.5685 14.8368L39.5217 13.2557C36.8426 12.2161 34.5022 10.8469 34.4931 7.22644C34.4931 5.5439 35.0547 4.17286 36.1053 3.21839C37.0889 2.3255 38.4402 1.84555 40.0343 1.84374C42.5468 1.84374 44.4959 3.00649 45.7839 5.22876L46.1045 5.75761C46.1045 5.75761 47.0011 3.25462 47.3634 2.34362L47.4305 2.17337L47.2837 2.06289C45.3582 0.657447 43.2533 -0.00180742 40.5542 3.7213e-06C38.2374 3.7213e-06 35.8988 0.657447 34.129 2.03934C32.5801 3.25508 31.5622 5.02318 31.2887 6.97288C29.5515 7.06525 27.2853 7.154 24.9323 7.154C21.7423 7.154 17.4293 6.97288 15.6758 6.87327C15.712 7.29164 15.7808 7.8531 15.7808 8.14107C15.7808 8.38376 15.712 8.90899 15.6758 9.29657C16.9039 9.11546 18.7263 9.01222 22.5484 9.01222H23.2168C23.3183 10.9393 23.3545 16.1916 23.3545 18.921C23.3545 23.3329 23.2857 28.6504 23.0737 32.5045C23.6353 32.4701 24.6171 32.3994 25.0373 32.3994C25.3163 32.3994 26.2311 32.4701 26.7908 32.5045C26.5807 28.6522 26.5101 23.3347 26.5101 18.921C26.5101 16.1916 26.5445 10.9393 26.6495 9.01222H27.318C29.2834 9.01222 30.3974 9.0412 31.1908 9.09191C31.3828 12.5331 33.3102 15.1121 36.7212 16.4669L40.5941 18.0444C43.7876 19.343 45.485 21.4855 45.485 24.1153C45.4687 28.1668 42.9489 30.7024 38.9456 30.7205C36.7302 30.7205 34.7793 29.8403 32.9914 28.0038C32.3718 27.3312 31.8254 26.5948 31.3611 25.8069L30.6148 29.8312L30.7253 29.9327C33.1907 32.2057 35.6397 32.5588 37.8515 32.5588H37.895C41.0379 32.5588 43.7641 31.4993 45.706 29.6954C46.3898 29.0604 46.9764 28.3281 47.4468 27.522C47.4033 29.3096 47.3417 31.0139 47.2656 32.5009C47.7638 32.4665 48.9249 32.3958 49.3832 32.3958C50.4429 32.3958 52.5587 32.5009 53.8973 32.5009C59.5128 32.5009 63.911 30.1754 63.911 24.9937C63.9219 21.9619 62.5071 19.6364 57.4623 18.5877ZM50.7273 8.92167C51.47 8.88726 52.8793 8.85103 53.6908 8.85103C56.8989 8.85103 59.5092 10.05 59.5092 13.0438C59.5092 16.2894 56.5131 17.9103 52.5985 17.9103C51.7508 17.9103 51.1149 17.8741 50.7273 17.8379V8.92167ZM53.7234 30.5285C52.8087 30.5285 51.5044 30.4923 50.7273 30.4561V19.7704H51.7145C58.598 19.7704 60.3207 21.7789 60.3207 24.952C60.3207 29.0126 57.3228 30.5285 53.7234 30.5285Z" fill="white"/>
</svg>
