<svg width="23" height="21" viewBox="0 0 23 21" fill="none" xmlns="http://www.w3.org/2000/svg">
<path d="M16.0804 0C14.1507 0 12.2987 0.898284 11.0899 2.31779C9.88112 0.898284 8.0291 0 6.09946 0C2.68376 0 0 2.68376 0 6.09946C0 10.2914 3.77057 13.7071 9.48188 18.8972L11.0899 20.35L12.698 18.8861C18.4093 13.7071 22.1798 10.2914 22.1798 6.09946C22.1798 2.68376 19.4961 0 16.0804 0ZM11.2008 17.2448L11.0899 17.3557L10.979 17.2448C5.70022 12.4651 2.21798 9.30444 2.21798 6.09946C2.21798 3.88147 3.88147 2.21798 6.09946 2.21798C7.8073 2.21798 9.47079 3.31589 10.0586 4.8352H12.1324C12.709 3.31589 14.3725 2.21798 16.0804 2.21798C18.2984 2.21798 19.9619 3.88147 19.9619 6.09946C19.9619 9.30444 16.4796 12.4651 11.2008 17.2448Z" fill="#777777"/>
</svg>
