<svg width="20" height="20" viewBox="0 0 20 20" fill="none" xmlns="http://www.w3.org/2000/svg">
<g clip-path="url(#clip0_225_22664)">
<path d="M19.7293 18.5773L14.0354 12.8899C15.1383 11.5291 15.8024 9.7999 15.8024 7.9166C15.8024 3.55164 12.2467 0 7.87676 0C3.50683 0 -0.0488281 3.55161 -0.0488281 7.91656C-0.0488281 12.2815 3.50687 15.8332 7.8768 15.8332C9.76225 15.8332 11.4934 15.1699 12.8557 14.0682L18.5497 19.7556C18.7124 19.9181 18.9259 19.9998 19.1395 19.9998C19.3531 19.9998 19.5667 19.9181 19.7294 19.7556C20.0556 19.4298 20.0556 18.9031 19.7293 18.5773ZM7.8768 14.1665C4.42623 14.1665 1.61974 11.3632 1.61974 7.91656C1.61974 4.46992 4.42623 1.66662 7.8768 1.66662C11.3274 1.66662 14.1339 4.46992 14.1339 7.91656C14.1339 11.3632 11.3273 14.1665 7.8768 14.1665Z" fill="#728493"/>
</g>
<defs>
<clipPath id="clip0_225_22664">
<rect width="20" height="20" fill="white"/>
</clipPath>
</defs>
</svg>
