<svg width="25" height="25" viewBox="0 0 25 25" fill="none" xmlns="http://www.w3.org/2000/svg">
<g clip-path="url(#clip0_2_8544)">
<path d="M23.8273 10.6752L20.733 7.81134C20.0562 7.18511 19.168 6.83723 18.2461 6.83764H16.665V6.51819C16.6643 5.07267 15.4927 3.901 14.0472 3.90039H2.6178C1.17228 3.901 0.000613549 5.07267 0 6.51819V18.2406C0.000818062 18.5296 0.234784 18.7633 0.52356 18.7642H2.15703C2.38302 20.1033 3.54262 21.0836 4.9006 21.0836C6.25838 21.0836 7.41799 20.1033 7.64398 18.7642H17.3926C17.6186 20.1033 18.7782 21.0836 20.1362 21.0836C21.494 21.0836 22.6536 20.1033 22.8796 18.7642H24.4764C24.7652 18.7633 24.9992 18.5296 25 18.2406V13.3664C25.0035 12.3446 24.5781 11.3683 23.8273 10.6752ZM23.1152 11.445H20.0157V8.57582L20.0209 8.58093L23.1152 11.445ZM2.6178 4.94751H14.0472C14.9135 4.94996 15.6152 5.65186 15.6178 6.51819V12.5862H1.04712V6.51819C1.04957 5.65186 1.75147 4.94996 2.6178 4.94751ZM4.9006 20.0365C3.94347 20.0365 3.16754 19.2605 3.16754 18.3036C3.16754 17.3465 3.94347 16.5705 4.9006 16.5705C5.85753 16.5705 6.63346 17.3465 6.63346 18.3036C6.63244 19.2601 5.85712 20.0354 4.9006 20.0365ZM4.9006 15.5181C3.58884 15.5199 2.45582 16.4353 2.17809 17.717H1.04712V13.6333H15.6178V17.717H7.62312C7.34681 16.4343 6.21278 15.5183 4.9006 15.5181ZM20.1362 20.0365C19.1791 20.0365 18.4031 19.2605 18.4031 18.3036C18.4031 17.3465 19.1791 16.5705 20.1362 16.5705C21.0931 16.5705 21.8691 17.3465 21.8691 18.3036C21.868 19.2601 21.0927 20.0354 20.1362 20.0365ZM23.9582 17.717H22.8587C22.5826 16.4343 21.4484 15.5181 20.1362 15.5181C18.8238 15.5181 17.6896 16.4343 17.4137 17.717H16.665V7.88476H18.2461C18.4903 7.88578 18.7332 7.91932 18.9686 7.98415V11.445C18.9703 12.0225 19.4382 12.4902 20.0157 12.4921H23.8062C23.9071 12.7725 23.9584 13.0684 23.9582 13.3664V17.717Z" fill="#777777"/>
<path d="M4.9011 16.8125C4.07976 16.8125 3.41406 17.4782 3.41406 18.2993C3.41406 19.1205 4.07976 19.7862 4.9011 19.7862C5.72223 19.7862 6.38793 19.1205 6.38793 18.2993C6.3867 17.4786 5.72161 16.8137 4.9011 16.8125ZM4.9011 18.7444C4.65813 18.7444 4.46118 18.5474 4.46118 18.3046C4.46118 18.0617 4.65813 17.8647 4.9011 17.8647C5.14386 17.8647 5.34081 18.0617 5.34081 18.3046C5.33937 18.5468 5.14324 18.7429 4.9011 18.7444Z" fill="#777777"/>
<path d="M20.1355 16.8125C19.3141 16.8125 18.6484 17.4782 18.6484 18.2993C18.6484 19.1205 19.3141 19.7862 20.1355 19.7862C20.9566 19.7862 21.6223 19.1205 21.6223 18.2993C21.621 17.4786 20.956 16.8137 20.1355 16.8125ZM20.1355 18.7444C19.8925 18.7444 19.6955 18.5474 19.6955 18.3046C19.6955 18.0617 19.8925 17.8647 20.1355 17.8647C20.3782 17.8647 20.5752 18.0617 20.5752 18.3046C20.5737 18.5468 20.3776 18.7429 20.1355 18.7444Z" fill="#777777"/>
<path d="M7.23058 10.2088C7.32834 10.3089 7.46229 10.3653 7.60218 10.3659C7.74105 10.3649 7.87419 10.3105 7.97399 10.2142L10.4922 7.69576C10.6961 7.49186 10.6961 7.16136 10.4922 6.95746C10.2885 6.75376 9.958 6.75376 9.75409 6.95746L7.6075 9.10406L6.56549 8.04139C6.36323 7.83606 6.03273 7.83361 5.8274 8.03608C5.62206 8.23855 5.61981 8.56904 5.82208 8.77438L7.23058 10.2088Z" fill="#777777"/>
</g>
<defs>
<clipPath id="clip0_2_8544">
<rect width="25" height="25" fill="white"/>
</clipPath>
</defs>
</svg>
