<svg width="25" height="25" viewBox="0 0 25 25" fill="none" xmlns="http://www.w3.org/2000/svg">
<g clip-path="url(#clip0_2_8549)">
<path d="M24.4771 12.4497H23.1155V8.4634C23.1147 8.17765 22.8834 7.94651 22.5978 7.9457H20.4908V4.55472C20.4896 3.5543 19.6791 2.74377 18.6789 2.74275H11.871L10.5715 1.43797C10.2536 1.11704 9.81153 0.950603 9.36096 0.982353C8.9102 1.01431 8.49583 1.24121 8.22626 1.6038L7.38256 2.74275H3.10623C1.39133 2.74397 0.0014156 4.13389 0 5.84899V20.9142C0.0014156 22.6291 1.39133 24.019 3.10623 24.0205H22.629C22.9145 24.0194 23.1459 23.7883 23.1467 23.5028V19.3611H24.4822C24.768 19.3601 24.9991 19.1289 24.9999 18.8434V12.9674C24.9967 12.6807 24.7637 12.4501 24.4771 12.4497ZM18.6789 3.77817C18.8849 3.77776 19.0825 3.85946 19.2283 4.00527C19.3739 4.15087 19.4556 4.34865 19.4554 4.55472V7.9457H17.0531L12.9064 3.77817H18.6789ZM9.05459 2.22505C9.14458 2.10432 9.2825 2.02889 9.43255 2.01797C9.58261 2.00705 9.73003 2.06165 9.8364 2.16802L15.5882 7.9457H4.8094L9.05459 2.22505ZM1.03541 5.84899C1.03501 4.70498 1.96243 3.77776 3.10623 3.77817H6.61632L3.5204 7.9457H3.10623C1.96243 7.9459 1.03501 7.01868 1.03541 5.87487V5.84899ZM22.106 22.985H3.10623C1.96243 22.9852 1.03501 22.058 1.03541 20.9142V8.18898C1.60408 8.70001 2.34181 8.98212 3.10623 8.98111H16.7271C16.8121 9.00173 16.9009 9.00173 16.986 8.98111H22.0854V12.4497H19.1551C17.7257 12.4501 16.5672 13.6087 16.5666 15.0383V16.7776C16.5672 18.207 17.7257 19.3658 19.1551 19.3662H22.1113V22.985H22.106ZM23.9594 18.3307H19.1498C18.2932 18.3283 17.5994 17.6345 17.5967 16.7776V15.0383C17.5994 14.1814 18.2932 13.4876 19.1498 13.4851H22.4373C22.5416 13.5195 22.6541 13.5195 22.7584 13.4851H23.9594V18.3307Z" fill="#777777"/>
<path d="M19.6681 14.5195C19.3825 14.5203 19.1512 14.7515 19.1504 15.0372V16.7766C19.1504 17.0626 19.3823 17.2943 19.6681 17.2943C19.954 17.2943 20.1858 17.0626 20.1858 16.7766V15.0372C20.1864 14.8997 20.132 14.7677 20.0347 14.6706C19.9377 14.5733 19.8056 14.5189 19.6681 14.5195Z" fill="#777777"/>
</g>
<defs>
<clipPath id="clip0_2_8549">
<rect width="25" height="25" fill="white"/>
</clipPath>
</defs>
</svg>
