<svg width="25" height="25" viewBox="0 0 25 25" fill="none" xmlns="http://www.w3.org/2000/svg">
<g clip-path="url(#clip0_2_8552)">
<path d="M21.343 7.43166V2.24238C21.3419 1.0045 20.3385 0.00126035 19.1006 0H5.62995C4.44144 0 3.46824 0.957237 3.46824 2.13483L3.38757 15.1538H1.23111C0.934507 15.1547 0.6942 15.395 0.693359 15.6916V18.5578C0.69672 20.07 1.88754 21.313 3.39829 21.381V21.3863H14.9492V21.381C15.003 21.3863 15.0568 21.3863 15.1105 21.3863C16.6719 21.3844 17.9371 20.1192 17.939 18.5578V7.96416H20.8052C20.9476 7.96668 21.0852 7.91165 21.1865 7.81145C21.2877 7.71104 21.3442 7.57429 21.343 7.43166ZM1.76886 18.5631V16.2346H12.2819V18.5631C12.2825 19.2 12.4987 19.8178 12.895 20.3162H3.52201C2.55385 20.316 1.76907 19.5312 1.76886 18.5631ZM16.8635 2.24238V18.5631C16.8635 19.5312 16.0787 20.3162 15.1105 20.3162C14.1424 20.3162 13.3574 19.5312 13.3574 18.5631V15.6968C13.3565 15.4002 13.1162 15.1599 12.8196 15.1591H4.46832L4.54374 2.14029C4.54962 1.54624 5.0359 1.06962 5.62995 1.0755H17.1916C16.9767 1.42672 16.863 1.83066 16.8635 2.24238ZM20.2675 6.89391H17.939V2.24238C17.939 1.59792 18.4616 1.0755 19.1061 1.0755C19.7505 1.0755 20.2729 1.59792 20.2729 2.24238V6.89391H20.2675Z" fill="#777777"/>
<path d="M14.5615 6.73243H6.52212C6.2251 6.73243 5.98438 6.97316 5.98438 7.27018C5.98438 7.5672 6.2251 7.80793 6.52212 7.80793H14.5667C14.8637 7.80646 15.1032 7.56447 15.1017 7.26745C15.1003 6.97064 14.8583 6.73096 14.5615 6.73243Z" fill="#777777"/>
<path d="M14.5615 9.36329H6.52212C6.2251 9.36329 5.98438 9.60402 5.98438 9.90104C5.98438 10.1979 6.2251 10.4388 6.52212 10.4388H14.5667C14.8637 10.4373 15.1032 10.1953 15.1017 9.89831C15.1003 9.60128 14.8583 9.36182 14.5615 9.36329Z" fill="#777777"/>
<path d="M11.1737 11.9375H6.52213C6.2251 11.9375 5.98438 12.1782 5.98438 12.4752C5.98438 12.7723 6.2251 13.013 6.52213 13.013H11.1737C11.4705 13.013 11.7114 12.7723 11.7114 12.4752C11.7114 12.1782 11.4705 11.9375 11.1737 11.9375Z" fill="#777777"/>
<path d="M22.2029 9.70117C21.0453 9.70264 20.1071 10.6408 20.1057 11.7984V21.1177C20.1048 21.1376 20.1067 21.1576 20.1111 21.1769V21.1876C20.1111 21.2038 20.1164 21.2145 20.1164 21.2307C20.1157 21.2366 20.1176 21.2424 20.1218 21.2468C20.1248 21.2595 20.1283 21.2721 20.1326 21.2844C20.1326 21.2897 20.138 21.2952 20.138 21.3006C20.1433 21.3113 20.1487 21.3275 20.1542 21.3382C20.1542 21.3412 20.1565 21.3435 20.1594 21.3435L21.7458 24.6937C21.8351 24.8802 22.0231 24.9991 22.2298 25.0002H22.2352C22.4436 25 22.6327 24.8781 22.7192 24.6885L24.2518 21.3382V21.3328C24.257 21.322 24.2625 21.3059 24.268 21.2952C24.2684 21.2912 24.2703 21.2874 24.2732 21.2844C24.2793 21.2708 24.2831 21.2563 24.2839 21.2414C24.2839 21.2359 24.2839 21.2359 24.2894 21.2307C24.2938 21.2149 24.2957 21.1985 24.2948 21.1821V21.1714C24.2948 21.1553 24.3001 21.1338 24.3001 21.1124V11.7984C24.2986 10.6408 23.3605 9.70264 22.2029 9.70117ZM21.1812 20.5799V13.4654H23.2246V20.5799H21.1812ZM22.2029 10.7767C22.7673 10.7765 23.2248 11.2342 23.2246 11.7984V12.3899H21.1812V11.7984C21.1809 11.2342 21.6385 10.7765 22.2029 10.7767ZM22.2245 23.188L21.4986 21.6502H22.9288L22.2245 23.188Z" fill="#777777"/>
</g>
<defs>
<clipPath id="clip0_2_8552">
<rect width="25" height="25" fill="white"/>
</clipPath>
</defs>
</svg>
